<?xml version="1.0" standalone="no"?>
<!DOCTYPE svg PUBLIC "-//W3C//DTD SVG 20010904//EN"
 "http://www.w3.org/TR/2001/REC-SVG-20010904/DTD/svg10.dtd">
<svg version="1.0" xmlns="http://www.w3.org/2000/svg"
 width="700.000000pt" height="700.000000pt" viewBox="0 0 700.000000 700.000000"
 preserveAspectRatio="xMidYMid meet">
<metadata>
Created by potrace 1.11, written by Peter Selinger 2001-2013
</metadata>
<g transform="translate(0.000000,700.000000) scale(0.100000,-0.100000)"
fill="#000000" stroke="none">
<path d="M2416 6949 c18 -245 138 -472 327 -617 54 -42 182 -113 227 -126 14
-4 41 -12 60 -18 61 -18 192 -34 273 -33 l77 1 0 -580 0 -580 -35 58 c-19 32
-35 61 -35 63 0 3 -14 24 -32 47 -231 298 -501 456 -858 501 -35 4 -216 8
-317 6 l-52 -1 4 -57 c4 -56 14 -142 20 -173 60 -287 203 -523 425 -702 120
-97 190 -138 333 -191 152 -58 254 -77 439 -80 l108 -2 0 -579 0 -579 -49 81
c-62 104 -98 150 -185 238 -176 178 -412 299 -659 339 -82 13 -276 21 -404 16
l-32 -1 4 -62 c10 -154 49 -311 109 -443 79 -170 250 -376 391 -470 33 -22 62
-42 65 -45 26 -26 216 -112 300 -135 110 -31 213 -45 370 -49 l85 -2 5 -564
c6 -622 2 -595 69 -626 46 -22 97 -12 136 26 l30 30 5 568 5 568 75 -1 c337
-2 636 113 874 335 52 49 174 200 194 240 7 14 26 50 43 80 75 135 136 363
134 509 l0 45 -160 -2 c-88 0 -176 -3 -195 -6 -19 -2 -57 -8 -85 -11 -80 -11
-213 -53 -304 -96 -220 -103 -406 -271 -531 -480 l-50 -82 2 578 3 579 100 2
c175 4 300 26 434 75 289 106 542 339 674 619 34 72 86 229 92 274 1 12 5 39
8 61 4 22 9 70 12 108 5 64 4 67 -17 68 -139 5 -351 -3 -423 -17 -11 -3 -36
-7 -55 -10 -59 -10 -201 -59 -270 -94 -113 -56 -231 -141 -320 -229 -83 -83
-180 -206 -180 -230 0 -6 -4 -11 -10 -11 -5 0 -10 -4 -10 -10 0 -5 -9 -24 -20
-42 l-20 -33 2 579 3 580 112 2 c185 5 337 51 477 145 220 149 359 399 370
669 l1 25 -170 0 c-233 -1 -306 -15 -449 -87 -121 -61 -231 -155 -309 -264
-35 -49 -109 -193 -119 -231 -4 -14 -15 -20 -40 -21 -33 -1 -36 1 -48 41 -47
157 -182 329 -335 428 -156 102 -259 129 -511 136 l-191 5 3 -53z"/>
<path d="M255 5535 c-94 -36 -141 -71 -193 -147 -65 -94 -62 -39 -62 -1373 1
-1145 2 -1214 20 -1290 10 -44 18 -80 18 -80 -1 0 7 -23 16 -52 23 -68 63
-151 140 -288 34 -60 66 -117 70 -125 4 -8 12 -24 19 -35 7 -11 34 -60 61
-110 61 -112 69 -125 144 -258 34 -60 62 -110 62 -112 0 -2 15 -30 34 -62 18
-32 46 -80 61 -108 15 -27 120 -216 233 -420 113 -203 233 -420 267 -481 l62
-112 1 -223 c0 -123 1 -232 1 -241 1 -17 48 -18 845 -18 l843 0 -3 578 c-1
317 -5 592 -8 610 -3 18 -8 50 -11 70 -23 157 -80 333 -158 488 -134 266 -328
482 -587 652 -47 30 -93 65 -103 76 -15 18 -50 56 -162 180 -5 6 -50 56 -100
111 -49 55 -92 102 -95 105 -3 3 -41 45 -85 95 -76 85 -138 154 -160 179 -6 6
-55 61 -109 121 -126 141 -160 171 -223 201 -69 33 -169 39 -239 15 -52 -17
-52 -17 -74 6 -12 13 -28 23 -36 23 -8 0 -15 3 -15 8 -1 4 -3 390 -4 857 -1
646 -5 861 -14 895 -31 111 -107 201 -209 248 -70 32 -186 40 -247 17z"/>
<path d="M6535 5537 c-123 -41 -202 -123 -246 -252 -10 -32 -13 -211 -14 -903
l0 -862 -30 -16 c-17 -8 -33 -21 -37 -28 -6 -11 -18 -10 -59 4 -58 20 -154 20
-216 -1 -45 -15 -121 -68 -155 -109 -14 -17 -43 -50 -64 -73 -22 -23 -77 -85
-124 -137 -47 -52 -87 -97 -90 -100 -3 -3 -25 -28 -50 -55 -41 -46 -185 -205
-235 -261 -11 -12 -45 -50 -75 -84 -30 -35 -66 -75 -80 -89 -14 -14 -43 -46
-65 -71 -21 -25 -82 -73 -134 -108 -211 -141 -361 -292 -495 -499 -120 -185
-220 -451 -242 -643 -2 -19 -7 -51 -11 -70 -3 -19 -7 -293 -8 -607 l-2 -573
844 0 c667 0 843 3 844 13 0 6 1 115 1 241 l1 230 64 112 c34 62 63 115 63
120 0 4 6 15 14 23 7 9 35 57 61 106 26 50 51 95 55 100 4 6 23 39 42 75 20
36 127 229 238 430 112 201 217 390 233 420 16 30 33 60 37 65 6 9 50 87 105
190 11 22 28 51 37 65 19 31 65 114 131 240 64 121 92 202 116 330 3 19 6 591
6 1270 l0 1235 -32 67 c-61 130 -173 207 -311 214 -48 2 -92 -1 -117 -9z"/>
</g>
</svg>
