<?xml version="1.0" standalone="no"?>
<!DOCTYPE svg PUBLIC "-//W3C//DTD SVG 20010904//EN"
 "http://www.w3.org/TR/2001/REC-SVG-20010904/DTD/svg10.dtd">
<svg version="1.0" xmlns="http://www.w3.org/2000/svg"
 width="843.000000pt" height="1243.000000pt" viewBox="0 0 843.000000 1243.000000"
 preserveAspectRatio="xMidYMid meet">
<metadata>
Created by potrace 1.15, written by Peter Selinger 2001-2017
</metadata>
<g transform="translate(0.000000,1243.000000) scale(0.100000,-0.100000)"
fill="#c5c5c5" stroke="none"> <!--53350A-->
<path d="M4263 12391 c-70 -45 -95 -87 -92 -158 1 -26 -1 -59 -5 -73 -6 -24
-6 -24 4 1 8 20 20 28 49 33 49 8 96 51 110 102 13 46 15 134 3 134 -5 0 -36
-17 -69 -39z"/>
<path d="M3398 12358 c-72 -89 -86 -154 -47 -229 11 -23 18 -47 15 -55 -9 -24
-62 44 -76 96 -18 66 -70 113 -154 139 -64 20 -106 26 -106 17 0 -15 43 -98
70 -134 39 -54 106 -87 162 -79 34 5 41 2 63 -27 29 -38 55 -97 55 -126 0 -21
0 -21 -31 -3 -18 10 -44 38 -60 63 -41 67 -91 92 -200 98 -75 4 -89 2 -89 -10
0 -23 100 -121 143 -142 38 -18 103 -18 153 -1 16 5 31 -1 58 -25 29 -26 36
-39 36 -69 0 -35 9 -82 24 -130 l8 -23 -30 22 c-17 13 -34 38 -41 61 -21 69
-83 110 -196 128 -38 5 -71 8 -74 5 -10 -10 36 -81 85 -131 56 -56 93 -70 165
-60 34 4 43 1 67 -23 23 -23 85 -158 77 -168 -1 -1 -32 11 -69 28 -37 16 -110
43 -163 60 -53 16 -114 41 -135 55 -33 22 -38 30 -31 48 30 85 -24 160 -154
212 -32 13 -59 22 -61 21 -8 -9 22 -137 39 -165 23 -38 72 -69 121 -77 21 -4
48 -18 63 -34 l26 -28 -43 9 c-24 4 -79 8 -123 9 -81 0 -100 8 -133 51 -10 13
-9 24 3 53 21 50 6 101 -42 150 -45 45 -118 90 -133 81 -13 -8 -13 -99 0 -147
12 -42 63 -91 112 -107 34 -11 100 -81 76 -81 -31 0 -134 32 -165 51 -30 19
-33 24 -27 54 8 46 -25 103 -79 137 -48 30 -153 65 -164 55 -12 -13 28 -117
59 -153 38 -43 54 -52 117 -64 43 -8 138 -58 115 -61 -37 -4 141 -28 216 -29
73 -1 89 -4 70 -11 -13 -5 -47 -7 -75 -4 -82 11 -130 -8 -197 -76 -32 -33 -58
-64 -58 -69 0 -15 131 -12 187 5 55 16 113 70 113 104 0 23 46 41 102 41 44 0
180 -29 188 -40 3 -4 21 -9 40 -12 19 -4 76 -25 125 -47 l91 -42 42 -93 c24
-51 79 -150 122 -221 44 -71 79 -130 77 -131 -2 -2 -47 13 -100 33 -72 26
-111 47 -147 80 -57 51 -67 74 -46 105 21 29 20 81 0 124 -17 36 -119 134
-140 134 -28 0 -32 -139 -6 -190 10 -19 42 -51 70 -70 47 -32 107 -101 97
-112 -6 -5 131 -70 200 -94 33 -12 44 -19 32 -22 -11 -2 -46 8 -79 23 -49 22
-70 26 -109 22 -45 -6 -161 -56 -173 -76 -9 -15 130 -61 184 -61 47 0 104 22
131 51 48 51 114 34 254 -66 66 -47 188 -155 182 -161 -2 -2 -32 12 -68 31
-84 46 -197 81 -302 95 -86 12 -141 8 -309 -20 -60 -10 -72 -9 -112 9 -42 18
-45 22 -44 54 3 76 -69 139 -176 153 -48 7 -48 7 -41 -17 18 -60 59 -130 85
-149 21 -15 46 -21 81 -22 32 0 52 -5 55 -13 3 -7 21 -16 40 -19 19 -4 34 -9
34 -11 0 -13 -66 -65 -94 -75 -64 -21 -111 -97 -132 -213 l-7 -39 42 22 c96
48 159 139 149 210 -8 52 32 83 128 99 152 26 142 25 119 8 -11 -8 -42 -17
-68 -19 -37 -4 -57 -14 -84 -39 -32 -31 -98 -147 -88 -157 9 -10 84 11 130 36
58 32 95 82 95 129 0 31 4 36 44 54 36 16 57 18 120 12 88 -7 96 -18 17 -22
-39 -1 -81 -38 -113 -98 -36 -67 -43 -93 -25 -93 10 0 16 -17 21 -57 12 -106
50 -161 120 -179 16 -4 41 -21 57 -38 l28 -31 -27 -6 c-15 -4 -54 -8 -87 -9
-33 -1 -52 -4 -42 -7 15 -4 13 -9 -14 -34 -18 -17 -48 -37 -68 -45 -72 -30
-103 -78 -130 -201 -5 -27 -5 -43 1 -43 14 0 111 65 135 91 29 32 43 72 43
124 0 37 5 49 33 74 23 22 42 31 67 31 19 0 55 5 80 10 25 6 56 12 70 15 l25
6 -25 -21 c-16 -12 -40 -20 -67 -20 -35 0 -50 -7 -81 -34 -35 -32 -102 -150
-91 -161 7 -6 99 19 136 38 44 23 83 78 87 123 5 48 47 73 126 74 123 0 265
-44 402 -127 125 -75 148 -102 192 -221 l37 -102 -30 -143 c-76 -360 -112
-746 -131 -1395 -6 -189 -13 -349 -17 -355 -9 -15 -18 12 -88 283 -103 397
-173 590 -318 873 -49 97 -87 181 -83 185 4 4 36 5 72 3 55 -2 71 1 109 24 25
14 60 45 76 68 l31 42 -57 3 c-65 3 -154 -19 -177 -45 -9 -10 -23 -31 -31 -48
-14 -27 -16 -28 -17 -8 0 43 41 131 76 162 30 27 38 30 56 20 30 -16 112 -4
154 22 20 12 54 45 76 73 l41 51 -36 3 c-47 4 -139 -13 -183 -34 -22 -11 -43
-32 -56 -58 -20 -39 -44 -65 -61 -66 -4 0 4 17 18 38 14 20 39 61 56 90 17 29
43 59 58 67 14 8 22 14 16 14 -5 1 -17 -4 -25 -9 -11 -7 -17 -5 -22 8 -6 16
-7 16 -7 -1 -1 -21 -37 -95 -58 -119 -14 -16 -17 -15 -34 19 -11 21 -19 55
-19 76 0 73 -38 113 -155 164 -49 21 -50 21 -53 2 -5 -29 25 -122 49 -152 27
-36 55 -50 109 -57 40 -4 47 -9 63 -42 l18 -37 -31 -62 -32 -62 -19 29 c-12
18 -19 47 -19 76 0 63 -34 102 -127 145 -39 18 -75 33 -78 33 -13 0 7 -85 31
-136 26 -56 80 -94 131 -94 30 0 54 -20 66 -53 4 -10 0 -47 -9 -83 l-16 -64
-54 86 c-75 119 -179 258 -254 338 -111 118 -290 250 -445 329 -69 35 -102 62
-123 102 -8 15 -5 25 15 49 22 26 25 37 21 83 -4 44 -12 62 -49 109 -24 31
-54 64 -66 72 -21 13 -23 12 -34 -14 -6 -16 -13 -56 -16 -90 -7 -73 11 -112
66 -152 42 -30 94 -110 63 -97 -9 4 -60 24 -113 44 l-95 36 -21 75 c-11 41
-31 102 -43 136 -33 87 -24 125 32 144 30 11 51 28 73 58 28 41 30 50 29 128
0 46 -5 89 -10 94 -16 16 -118 -72 -143 -122 -24 -50 -26 -89 -7 -133 9 -21
10 -39 3 -61 l-9 -31 -55 80 -55 80 17 44 c13 35 21 43 41 43 87 0 154 99 154
227 l0 53 -37 -19 c-115 -59 -171 -133 -157 -206 7 -37 -12 -125 -27 -125 -11
0 -39 53 -55 105 -7 22 -13 31 -13 20 -1 -15 -19 -2 -76 55 -41 41 -75 78 -75
82 0 4 16 14 35 22 55 23 77 68 72 146 -2 36 -12 81 -22 100 l-18 34 -42 -46
c-47 -52 -75 -104 -75 -140 0 -13 9 -41 21 -62 28 -53 18 -55 -23 -4 -65 81
-78 105 -78 145 0 33 4 40 37 58 72 40 90 127 48 233 l-18 43 -30 -28 c-47
-44 -87 -113 -87 -150 0 -19 9 -51 20 -73 11 -22 20 -52 20 -67 0 -22 -13 -5
-55 75 -30 57 -55 108 -55 115 0 7 9 18 21 25 31 19 52 77 44 123 -6 35 -76
159 -90 159 -13 0 -65 -127 -65 -158 0 -44 25 -97 56 -117 13 -8 24 -24 24
-34 0 -19 -1 -19 -38 1 -20 12 -48 38 -62 60 -36 57 -95 82 -196 82 -45 1 -86
-2 -90 -7 -12 -12 76 -95 130 -122 55 -27 90 -31 146 -14 49 15 88 -5 135 -69
39 -53 42 -63 17 -56 -9 2 -7 -1 5 -7 13 -7 26 -21 29 -33 4 -12 24 -49 45
-83 21 -35 36 -63 34 -63 -18 0 -65 31 -89 58 -53 61 -114 78 -221 63 -37 -5
-70 -12 -72 -15 -10 -9 17 -34 78 -75 76 -51 133 -61 205 -36 53 18 53 18 91
-6 48 -29 234 -222 207 -214 -10 3 -2 -3 18 -15 21 -11 45 -35 54 -53 9 -17
35 -58 56 -90 30 -44 35 -56 19 -48 -11 6 -28 27 -37 46 -21 45 -64 81 -112
95 -45 12 -182 13 -182 1 0 -18 70 -98 110 -126 47 -33 141 -46 179 -26 43 23
104 -46 150 -169 11 -30 15 -47 8 -36 -6 10 -21 32 -32 49 -34 53 -78 71 -182
75 -111 5 -114 0 -48 -75 59 -68 118 -96 188 -91 28 2 60 8 70 12 13 7 20 1
31 -25 8 -19 17 -50 21 -70 l7 -36 -129 34 c-70 19 -157 43 -193 55 -77 24
-246 109 -279 139 l-23 21 35 29 c45 37 61 78 54 134 -7 44 -48 138 -66 149
-21 14 -90 -117 -91 -172 0 -36 20 -81 44 -101 9 -8 16 -20 16 -28 0 -10 -14
-4 -42 19 -74 58 -115 106 -122 143 -6 32 -3 39 34 73 38 37 40 42 40 97 0 44
-7 72 -31 121 -18 35 -34 64 -37 64 -16 0 -72 -99 -83 -148 -9 -41 5 -93 35
-129 20 -24 43 -93 31 -93 -2 0 -16 20 -31 45 -14 25 -44 67 -65 93 -51 60
-57 84 -30 118 26 33 28 101 4 151 -9 19 -38 58 -64 87 l-47 51 -16 -54 c-33
-111 -15 -188 55 -237 38 -26 55 -63 24 -50 -45 18 -46 16 -4 -11 25 -17 57
-46 72 -64 23 -30 24 -35 10 -40 -14 -5 -12 -7 7 -12 14 -3 34 -21 45 -39 10
-18 37 -53 59 -77 l41 -44 -30 7 c-16 4 -46 23 -65 41 -54 52 -111 63 -212 43
-44 -9 -83 -20 -87 -23 -9 -10 46 -52 109 -83 73 -36 154 -38 200 -4 28 21 35
22 68 11 20 -6 48 -21 62 -34 14 -12 47 -38 74 -58 l49 -37 -93 0 c-51 0 -144
-5 -206 -12 -131 -13 -194 -3 -194 33 0 36 -27 74 -72 99 -35 20 -61 25 -137
28 l-94 4 19 -33 c31 -54 96 -113 139 -126 22 -7 64 -10 95 -7 33 4 67 1 85
-6 l30 -12 -65 -18 c-36 -9 -89 -27 -119 -39 -53 -21 -57 -22 -98 -6 -40 16
-43 19 -43 55 0 48 -37 96 -95 121 -44 19 -164 43 -173 35 -2 -3 10 -35 27
-71 42 -85 85 -115 179 -125 37 -4 82 -14 101 -22 l33 -15 -32 -12 c-36 -12
-169 -15 -186 -3 -6 4 -14 19 -18 34 -17 73 -149 115 -281 89 l-40 -8 61 -61
c75 -74 120 -90 204 -74 30 6 75 9 99 5 l44 -6 -24 -18 c-16 -13 -41 -19 -78
-19 -90 0 -155 -49 -210 -159 l-23 -44 47 7 c152 23 245 87 245 169 0 23 7 31
46 47 25 11 58 20 72 20 15 0 65 16 112 35 96 40 97 40 80 20 -6 -8 -35 -21
-65 -29 -66 -20 -118 -74 -139 -147 -9 -29 -16 -61 -16 -70 0 -17 3 -17 42 -3
24 8 53 22 66 30 23 15 26 14 85 -46 68 -69 123 -102 174 -103 52 -1 59 14 28
61 -35 52 -109 92 -186 99 -58 6 -74 15 -44 27 27 10 55 69 55 117 0 35 5 51
24 68 29 27 96 48 178 56 l63 5 -50 -16 c-61 -19 -92 -46 -115 -99 -24 -53
-35 -125 -21 -125 23 0 130 60 159 90 33 33 48 83 38 125 -9 34 12 38 186 33
138 -3 144 -4 186 -32 23 -16 41 -30 40 -31 -11 -11 -107 -32 -105 -24 1 6
-15 25 -36 42 -38 31 -42 32 -132 32 -51 0 -97 -3 -101 -7 -24 -25 94 -90 165
-91 l48 -1 -76 -38 c-41 -21 -88 -38 -104 -38 -56 0 -108 -42 -146 -117 -20
-41 -20 -43 -3 -43 10 0 41 7 69 15 57 17 110 68 119 115 9 43 119 96 254 120
53 10 72 8 187 -19 70 -17 148 -36 172 -43 l43 -13 -93 -34 c-52 -18 -118 -46
-148 -62 -30 -16 -60 -29 -66 -29 -6 0 -29 13 -51 29 -58 42 -106 55 -185 48
-102 -9 -112 -18 -56 -51 60 -35 148 -66 189 -66 18 0 46 7 62 15 15 8 32 13
36 10 5 -3 23 4 42 14 47 28 174 77 248 96 57 15 66 15 113 -1 270 -87 569
-273 717 -446 110 -128 254 -383 346 -610 24 -61 43 -112 41 -114 -2 -2 -50
17 -108 42 -57 26 -171 71 -254 100 -156 56 -294 120 -302 141 -3 7 4 24 16
39 28 35 36 85 21 131 -15 46 -89 155 -101 147 -13 -8 -39 -104 -39 -145 0
-53 15 -87 57 -126 57 -54 33 -47 -47 15 -51 39 -82 71 -97 101 l-23 45 22 23
c14 16 23 40 26 76 5 63 -20 124 -78 189 l-38 43 -12 -30 c-18 -45 -24 -157
-11 -198 7 -20 28 -50 47 -66 19 -17 39 -43 44 -58 9 -25 6 -23 -23 12 -17 22
-67 76 -109 121 l-77 81 16 44 c19 55 7 108 -38 165 -30 39 -117 114 -131 114
-12 0 -9 -129 2 -172 14 -48 51 -92 104 -123 44 -26 84 -74 51 -61 -52 19 -62
14 -15 -9 30 -14 70 -40 88 -58 29 -28 31 -32 15 -39 -14 -5 -13 -7 7 -7 18
-1 38 -17 70 -57 25 -31 63 -72 85 -90 38 -32 39 -34 15 -34 -19 -1 -15 -5 18
-15 23 -7 58 -25 76 -39 18 -14 59 -40 90 -59 l57 -34 -93 4 c-51 2 -120 0
-153 -6 -56 -9 -54 -9 30 -4 50 2 121 0 159 -7 128 -20 329 -106 556 -236
l118 -68 31 -100 c42 -140 81 -289 77 -294 -8 -7 -196 51 -207 64 -8 10 -7 19
5 36 32 45 10 135 -46 184 -34 31 -115 84 -127 84 -14 0 -14 -140 0 -177 16
-42 48 -73 104 -99 78 -36 35 -28 -66 12 -50 20 -104 48 -120 61 -16 14 -29
23 -29 20 0 -6 -229 110 -247 124 -7 6 -9 20 -4 37 11 39 -3 80 -41 120 -34
36 -127 84 -186 97 -30 6 -33 5 -28 -11 3 -11 8 -32 12 -49 21 -93 83 -157
171 -176 73 -15 96 -31 62 -40 -23 -7 -23 -7 3 -8 38 -1 142 -42 131 -51 -4
-4 -17 -11 -28 -14 -11 -3 -3 -3 18 0 31 4 48 -1 95 -30 31 -19 79 -45 106
-58 l48 -23 -43 -6 c-26 -3 -61 0 -88 8 -91 28 -174 4 -263 -75 l-51 -46 27
-7 c147 -40 287 -5 331 82 24 46 78 40 289 -29 97 -32 178 -61 181 -64 8 -8
62 -270 89 -438 37 -221 87 -674 74 -660 -3 3 -94 138 -203 300 -108 162 -222
324 -252 360 -227 268 -598 466 -1055 562 -142 30 -167 32 -360 33 l-208 1
-31 30 c-38 36 -59 75 -59 108 0 20 8 29 33 40 51 21 77 60 77 115 0 47 -31
131 -49 131 -18 0 -108 -109 -114 -137 -5 -29 13 -86 32 -97 6 -4 11 -19 11
-34 l0 -27 -25 30 c-14 17 -27 41 -30 55 -13 54 -38 88 -84 113 -51 28 -159
62 -168 53 -3 -3 9 -35 26 -71 40 -81 87 -116 164 -123 60 -5 88 -26 119 -87
11 -22 27 -48 36 -57 8 -10 11 -18 6 -18 -5 0 4 -9 20 -19 l29 -19 -59 -8
c-72 -9 -243 1 -309 17 -46 11 -255 139 -263 161 -2 4 -8 8 -14 8 -17 0 -169
113 -180 134 -22 40 -27 74 -12 80 24 9 54 69 54 107 0 65 -85 208 -110 183
-18 -19 -50 -116 -50 -155 0 -48 11 -72 55 -119 18 -19 36 -48 39 -65 6 -26
-5 -18 -79 60 -121 126 -119 123 -95 170 26 50 25 61 -6 123 -23 47 -108 132
-132 132 -12 0 -22 -48 -22 -108 0 -68 32 -125 91 -161 47 -30 63 -51 37 -51
-7 0 -1 -7 12 -17 14 -9 40 -30 58 -47 33 -31 33 -31 10 -38 -22 -6 -21 -6 5
-7 16 -1 36 -12 50 -27 12 -15 55 -53 95 -85 60 -49 69 -59 50 -60 -15 -1 -10
-4 15 -10 20 -5 60 -24 89 -43 l51 -35 -34 -5 c-19 -3 -65 -8 -104 -12 -38 -3
-113 -17 -165 -30 -52 -13 -100 -24 -108 -24 -7 0 -18 -4 -25 -10 -28 -23
-193 -100 -213 -100 -42 0 -74 18 -74 42 0 40 -38 88 -85 109 -48 21 -205 38
-205 22 0 -15 55 -96 81 -120 41 -38 93 -54 151 -47 34 3 67 0 93 -9 l39 -14
-66 -21 c-37 -12 -86 -23 -110 -24 l-43 -1 44 -6 c57 -8 40 -23 -41 -39 -70
-14 -101 -33 -137 -86 -30 -45 -65 -126 -57 -133 10 -10 71 7 131 36 87 41
119 83 127 165 2 21 12 33 38 46 75 39 242 120 247 120 17 0 -29 -36 -67 -52
-25 -11 -57 -31 -73 -46 -32 -30 -57 -106 -57 -169 l0 -44 49 27 c110 59 169
149 143 216 -11 29 -9 33 24 65 20 18 51 40 70 48 73 30 243 66 345 72 l106 6
62 -38 c34 -21 60 -39 58 -41 -1 -2 -30 4 -62 12 -43 11 -79 14 -125 9 -36 -4
-94 -6 -130 -5 -91 1 -138 -19 -205 -91 -30 -33 -52 -65 -49 -71 8 -13 133 -5
192 12 52 16 101 61 109 100 7 37 33 50 99 50 48 0 174 -28 174 -39 -1 -13
-73 -51 -98 -51 -89 0 -153 -52 -182 -149 -11 -35 -18 -66 -16 -69 11 -10 98
11 148 36 69 35 101 81 96 141 -3 43 -2 45 38 66 40 21 45 21 110 9 38 -8 87
-16 108 -19 l39 -6 -28 -15 c-15 -8 -54 -14 -87 -14 -88 0 -141 -36 -187 -127
-32 -64 -30 -67 39 -60 133 14 228 80 217 151 -3 25 1 30 37 46 71 31 466 44
601 21 93 -16 265 -62 265 -71 0 -4 -44 -10 -97 -13 -108 -7 -214 -33 -313
-79 -78 -37 -160 -38 -160 -3 0 24 -53 77 -95 96 -27 13 -63 18 -110 18 -113
-1 -116 -5 -46 -72 85 -82 144 -102 217 -77 18 6 46 7 69 2 l39 -8 -50 -36
c-27 -20 -60 -48 -73 -62 -21 -22 -34 -26 -85 -28 l-61 -2 53 -3 c28 -2 52 -8
52 -13 0 -16 -71 -63 -123 -81 -29 -10 -48 -18 -44 -19 20 0 -29 -60 -54 -65
-39 -9 -79 -43 -95 -81 -8 -19 -14 -67 -14 -109 0 -86 6 -90 66 -46 89 64 117
125 94 207 -12 43 -12 46 14 73 33 34 76 46 77 22 0 -14 1 -14 6 -1 4 8 42 51
85 95 l79 80 -15 -41 c-11 -32 -13 -77 -9 -205 4 -105 1 -178 -6 -204 -12 -45
-123 -223 -144 -231 -8 -3 -31 6 -52 20 -62 42 -157 31 -264 -32 l-45 -26 45
-20 c33 -15 66 -21 130 -21 84 0 88 1 129 34 67 54 56 30 -23 -46 -50 -49 -86
-75 -115 -84 -39 -11 -46 -10 -85 12 -68 38 -143 33 -242 -16 -43 -22 -78 -44
-79 -50 -1 -15 72 -37 145 -42 77 -6 127 7 172 47 30 25 93 48 81 29 -3 -5
-37 -28 -77 -51 -40 -23 -86 -52 -103 -65 -17 -13 -39 -23 -50 -23 -15 0 -16
-2 -5 -9 20 -13 -21 -64 -75 -92 -36 -20 -46 -21 -69 -11 -78 35 -192 1 -288
-88 l-52 -48 38 -7 c21 -4 71 -5 110 -3 85 6 144 32 184 83 33 41 113 91 113
70 0 -7 -23 -35 -52 -63 -47 -45 -52 -54 -55 -103 -4 -39 1 -70 17 -111 12
-32 26 -58 30 -58 14 0 91 100 106 137 24 55 18 108 -16 146 l-29 34 21 41
c23 47 84 105 148 141 l43 24 -5 -27 c-3 -14 -1 -26 3 -26 5 0 9 10 9 23 0 30
3 33 96 104 76 58 81 60 77 35 -3 -20 0 -17 10 10 8 21 38 65 68 99 l53 62 16
-39 c13 -30 14 -46 6 -72 -16 -53 21 -112 108 -174 l71 -49 3 53 c2 29 -1 69
-7 88 -13 45 -67 98 -117 115 -40 13 -64 43 -64 83 0 20 66 132 77 132 15 0
49 -61 55 -98 4 -28 17 -55 33 -72 29 -30 122 -76 175 -87 33 -6 33 -6 26 27
-18 93 -96 167 -188 179 -45 5 -55 11 -74 39 -17 25 -21 39 -14 61 4 15 11 55
15 89 4 34 11 62 16 62 5 0 9 -4 9 -10 0 -5 13 -25 30 -43 35 -40 89 -57 177
-57 92 0 97 12 36 70 -67 62 -139 82 -202 58 -21 -9 -43 -13 -49 -9 -10 7 -23
106 -24 187 0 36 8 66 26 102 22 42 37 57 91 88 65 36 100 43 49 10 -55 -37
-64 -107 -28 -219 l16 -49 29 28 c70 68 88 171 39 236 -12 16 -18 34 -14 38
24 23 160 53 285 63 153 12 203 4 324 -52 l60 -28 -37 -18 c-35 -17 -39 -17
-93 0 -47 14 -63 15 -103 5 -67 -16 -176 -89 -160 -106 3 -3 36 -10 74 -16 98
-15 163 1 206 51 55 63 73 59 31 -7 -61 -95 -70 -102 -125 -102 -68 0 -122
-30 -159 -88 -31 -50 -45 -89 -35 -99 3 -3 32 0 63 7 106 23 158 60 174 125 6
22 21 54 35 70 22 28 24 29 24 8 0 -12 -11 -39 -25 -59 -30 -44 -31 -65 -6
-120 19 -41 77 -114 91 -114 15 0 50 99 50 142 0 53 -28 101 -71 123 -29 15
-30 19 -24 53 7 40 28 73 73 115 l30 29 43 -23 c360 -183 610 -470 804 -924
65 -152 151 -409 177 -530 21 -93 22 -125 23 -490 0 -217 -6 -463 -13 -555
-21 -281 -62 -776 -80 -962 l-17 -176 -130 -107 -130 -106 -70 6 c-175 15
-327 12 -525 -10 -180 -19 -260 -50 -723 -274 -114 -55 -247 -116 -295 -135
-99 -39 -227 -61 -310 -53 -37 4 -50 3 -37 -3 11 -5 59 -9 106 -9 149 -2 256
35 684 236 345 162 458 196 638 191 l108 -3 -49 -37 c-129 -96 -299 -158 -586
-214 -295 -58 -239 -55 186 12 145 23 267 65 445 154 169 84 190 89 288 72
l40 -7 -54 -44 c-106 -83 -282 -193 -355 -222 -138 -53 -284 -79 -604 -104
-194 -16 -347 -42 -677 -118 -249 -58 -404 -81 -765 -117 -299 -30 -559 -87
-798 -176 -108 -40 -81 -39 39 2 146 49 344 100 480 123 91 16 504 53 553 50
6 0 -20 -15 -59 -33 -38 -18 -109 -62 -156 -97 -141 -106 -290 -162 -510 -193
-145 -21 -300 -53 -341 -71 -18 -8 -27 -14 -20 -15 7 0 21 4 31 9 27 15 200
48 346 66 137 18 256 48 350 89 l57 26 -24 -40 c-99 -168 -249 -330 -493 -533
-201 -167 -209 -174 -180 -159 47 24 486 385 534 438 29 33 84 106 123 162 39
57 84 119 100 138 30 34 171 134 190 134 22 0 -43 -145 -100 -223 -22 -29 -96
-110 -164 -178 -67 -69 -131 -139 -141 -157 -23 -41 -15 -42 11 -1 10 17 89
101 173 187 158 161 195 213 245 346 16 43 24 51 68 71 84 37 146 54 251 69
55 8 101 14 102 13 1 -1 -14 -19 -33 -40 -50 -54 -117 -103 -196 -143 -37 -19
-68 -36 -68 -38 0 -7 150 64 190 89 20 13 68 52 107 88 39 36 79 68 89 71 27
8 289 54 349 61 28 4 63 9 78 12 27 5 28 3 17 -16 -25 -47 -146 -164 -214
-206 -134 -83 -213 -114 -479 -186 -65 -17 -116 -33 -114 -35 6 -6 318 76 392
103 39 14 91 37 118 50 26 13 47 22 47 20 0 -8 -141 -98 -221 -141 -46 -24
-165 -77 -264 -116 -228 -91 -468 -209 -520 -255 -47 -43 -18 -31 60 24 67 47
242 126 475 215 291 112 462 208 608 341 39 37 72 62 72 57 0 -5 -22 -43 -48
-83 -58 -89 -142 -169 -280 -267 -101 -72 -232 -186 -232 -202 0 -5 26 17 58
48 31 32 116 99 188 150 201 142 280 226 346 370 17 37 44 83 60 103 l28 37
145 7 c79 4 177 4 216 0 l71 -7 -63 -35 c-80 -45 -165 -102 -254 -171 -89 -70
-312 -296 -345 -349 -20 -32 -47 -53 -125 -97 -180 -100 -297 -147 -428 -172
-192 -37 -424 -152 -607 -302 -30 -25 -118 -76 -195 -113 -141 -68 -202 -90
-527 -194 -97 -31 -216 -76 -265 -100 -110 -54 -104 -58 8 -6 95 44 204 82
411 141 150 44 284 94 405 152 l72 34 -26 -35 c-97 -131 -170 -219 -258 -311
-90 -94 -94 -99 -35 -50 120 102 231 213 287 289 65 88 107 135 145 162 l27
20 -25 -68 c-46 -120 -94 -265 -122 -367 l-27 -100 -80 -43 c-109 -59 -221
-101 -340 -128 -111 -26 -107 -34 5 -10 104 22 211 60 313 111 49 25 92 43 95
40 9 -10 -30 -111 -84 -218 -30 -59 -102 -178 -159 -265 -113 -171 -102 -162
42 36 144 196 189 291 254 535 33 124 160 502 171 510 5 4 167 99 211 124 89
51 269 114 283 99 3 -2 -22 -44 -55 -93 -60 -91 -161 -195 -308 -318 -46 -38
-90 -81 -100 -95 -9 -14 3 -6 28 19 24 25 87 80 139 122 136 108 248 235 303
344 12 24 25 33 64 41 26 6 49 10 51 8 5 -5 -45 -129 -81 -201 -49 -98 -134
-202 -257 -314 -58 -52 -140 -129 -183 -170 -79 -75 -154 -167 -144 -176 2 -3
14 10 25 28 25 41 186 198 308 301 177 149 295 315 349 489 l18 57 84 29 84
29 -7 -31 c-16 -76 -56 -160 -128 -269 -10 -15 -16 -27 -13 -27 7 0 80 115
108 169 13 24 30 71 39 103 l16 59 79 34 c89 39 89 39 80 25 -4 -6 -28 -97
-54 -203 -56 -223 -21 -186 -274 -297 -228 -100 -342 -172 -386 -244 -12 -19
-57 -137 -100 -263 -86 -252 -156 -426 -201 -496 -36 -57 -172 -167 -265 -214
-180 -91 -303 -205 -450 -418 -49 -71 -123 -163 -162 -205 -40 -41 -73 -77
-73 -79 0 -1 17 11 38 29 52 44 119 125 217 260 85 118 215 253 295 307 25 17
74 45 108 62 l64 32 -45 -63 c-71 -100 -101 -161 -173 -348 -65 -171 -91 -228
-135 -300 l-21 -35 22 25 c32 36 80 135 145 300 105 269 189 390 371 538 48
39 72 69 122 151 l20 35 -3 -65 c-2 -35 -2 -53 1 -39 2 14 9 52 15 85 10 57
124 397 191 570 26 67 42 90 97 145 37 36 82 74 100 84 l34 19 -7 -41 c-12
-80 -53 -168 -130 -285 -10 -15 -16 -27 -14 -27 8 0 74 102 103 159 14 29 35
87 46 129 10 41 20 76 22 77 6 6 87 45 92 45 3 0 2 -19 -1 -43 -27 -189 -106
-360 -252 -554 -55 -72 -119 -159 -142 -193 -44 -65 -95 -168 -87 -176 2 -3
12 14 21 37 25 62 88 155 220 324 166 213 242 376 271 577 8 52 0 47 168 109
l77 29 -6 -28 c-30 -132 -71 -277 -92 -322 -25 -53 -123 -162 -202 -224 -31
-25 -27 -24 37 9 173 89 224 191 354 707 107 430 143 486 468 732 12 9 13 2 7
-48 -23 -182 -97 -347 -244 -547 -140 -190 -200 -286 -216 -349 -3 -14 4 -2
18 26 30 64 124 205 205 307 159 200 237 365 263 557 l12 87 125 86 c69 48
127 85 129 83 2 -2 -19 -45 -47 -94 -74 -133 -240 -468 -306 -617 -111 -250
-169 -417 -210 -610 -27 -127 -85 -296 -109 -320 -58 -57 -310 -188 -476 -246
-50 -17 -89 -33 -87 -36 16 -16 381 146 497 220 30 20 56 34 58 32 2 -2 -11
-33 -30 -70 l-33 -67 -170 -67 c-180 -72 -333 -145 -402 -193 -24 -16 -71 -65
-105 -110 -34 -45 -95 -121 -135 -170 -40 -48 -73 -91 -73 -94 0 -14 46 35
147 156 91 110 200 216 211 206 2 -2 -14 -47 -35 -98 -72 -175 -111 -222 -469
-568 -71 -69 -137 -141 -147 -160 l-18 -35 23 30 c50 65 160 173 288 285 214
185 318 328 384 526 17 51 17 51 114 97 145 69 352 145 352 130 0 -12 -135
-206 -197 -283 -37 -47 -149 -166 -249 -265 -176 -176 -264 -277 -433 -500
-87 -113 -84 -115 13 -8 31 35 56 61 56 59 0 -2 -14 -33 -30 -69 -17 -37 -46
-124 -65 -194 -44 -164 -89 -296 -115 -341 -12 -19 -19 -37 -16 -39 14 -15 73
135 130 330 79 270 140 378 310 547 104 102 124 114 88 48 -30 -53 -68 -157
-91 -248 -34 -131 -81 -269 -113 -334 -16 -32 -27 -60 -25 -62 12 -12 82 162
131 326 80 269 126 355 272 516 125 139 237 275 303 368 48 70 52 58 21 -67
-31 -122 -115 -281 -236 -446 -114 -156 -169 -244 -190 -303 -7 -21 -12 -38
-10 -38 2 0 22 37 45 82 23 46 87 144 142 218 56 74 113 151 126 170 14 19 23
27 19 16 -15 -43 -36 -193 -35 -245 2 -48 3 -44 9 31 10 112 42 232 89 338 60
136 81 203 96 315 4 29 21 73 40 105 19 31 48 85 65 120 18 36 29 52 25 35
-107 -466 -117 -533 -121 -780 -3 -183 -6 -222 -28 -307 -30 -119 -111 -279
-201 -401 -140 -188 -248 -367 -232 -383 2 -3 12 14 21 37 10 23 38 74 63 113
48 75 225 317 229 313 1 -1 -6 -38 -17 -82 -12 -47 -21 -128 -24 -195 l-4
-115 9 110 c12 149 47 278 114 423 31 66 64 153 73 192 13 54 19 66 25 51 17
-47 49 -243 55 -336 9 -151 -7 -226 -79 -362 -32 -62 -57 -113 -55 -113 8 0
107 167 128 216 17 38 23 75 27 181 l5 133 31 -78 c42 -103 90 -186 180 -312
41 -58 96 -141 121 -185 25 -44 45 -76 45 -72 0 19 -56 114 -144 245 -169 251
-217 370 -265 659 -17 99 -31 189 -31 200 1 10 13 -14 29 -54 44 -112 96 -199
187 -315 47 -59 107 -140 134 -180 28 -39 50 -68 50 -63 0 13 -89 141 -167
241 -115 146 -170 253 -213 405 -18 65 -19 83 -10 154 17 126 77 478 105 614
14 68 25 140 25 160 1 55 16 19 30 -72 17 -106 8 -241 -29 -417 -17 -80 -30
-156 -30 -170 1 -14 7 7 14 45 7 39 25 120 38 180 14 61 29 148 33 195 6 78 9
89 45 135 34 45 92 159 242 477 49 104 144 254 180 284 22 19 22 19 5 -1 -34
-41 -99 -196 -132 -316 -18 -68 -59 -243 -90 -389 -112 -519 -118 -537 -271
-775 -21 -33 -31 -54 -21 -46 29 24 142 201 183 286 l38 80 3 -54 c5 -82 -23
-188 -95 -369 -36 -90 -63 -166 -60 -168 2 -2 14 24 27 58 12 35 40 101 61
148 21 47 47 117 57 155 18 65 20 68 27 40 4 -16 16 -60 26 -98 18 -59 18 -75
8 -130 -16 -85 -13 -316 5 -397 8 -36 13 -49 10 -30 -18 138 -15 440 5 440 5
0 16 -21 26 -47 10 -27 46 -108 80 -182 l62 -134 -34 -85 c-39 -98 -73 -238
-72 -297 1 -34 3 -31 10 20 17 119 93 346 109 328 14 -15 110 -270 126 -334
19 -74 29 -92 19 -34 -14 81 -70 236 -172 469 -162 372 -209 572 -184 783 9
77 118 597 163 783 22 91 52 158 101 230 l31 44 11 -28 c10 -24 7 -40 -23
-119 -41 -110 -72 -253 -70 -322 1 -46 2 -47 5 -10 11 125 80 375 103 375 11
0 30 -138 30 -217 0 -107 -28 -265 -75 -422 -75 -249 -96 -341 -100 -436 l-4
-90 8 80 c10 96 43 225 110 436 68 213 85 306 85 464 1 102 -4 152 -23 232
l-24 102 51 59 c28 33 59 65 68 73 15 12 16 12 11 -6 -35 -119 -41 -158 -41
-295 0 -115 5 -179 28 -310 19 -110 29 -203 30 -279 0 -87 3 -104 9 -75 11 50
2 171 -25 349 -30 194 -30 401 -1 506 51 179 43 167 273 383 115 108 211 196
214 196 17 0 -17 -45 -89 -120 -95 -99 -142 -166 -214 -307 -29 -56 -70 -130
-92 -165 l-40 -63 37 40 c19 22 61 85 91 140 31 55 75 130 99 166 44 66 150
176 160 166 3 -3 -15 -70 -41 -149 -86 -266 -149 -532 -219 -925 -46 -257
-108 -415 -247 -629 -80 -125 -189 -325 -189 -348 0 -6 22 32 48 84 26 52 88
158 138 235 97 149 157 261 194 363 13 34 24 61 25 60 3 -5 -43 -395 -60 -505
-9 -59 -26 -136 -37 -172 -19 -63 -83 -196 -129 -271 l-21 -35 21 25 c12 14
33 44 47 68 14 23 27 42 29 42 1 0 -4 -28 -11 -62 -19 -89 -27 -266 -16 -383
8 -95 8 -92 8 80 0 203 12 284 69 461 44 137 64 239 111 581 21 149 41 270 44
268 4 -2 15 -39 26 -82 28 -116 27 -362 -3 -498 -47 -212 -70 -421 -49 -442 3
-4 6 32 6 78 1 78 17 183 69 429 37 179 32 339 -15 508 l-27 93 27 132 c36
180 64 282 65 240 1 -18 12 -112 27 -210 17 -123 24 -209 22 -281 -2 -56 1
-102 6 -102 13 0 0 309 -18 420 -9 52 -16 143 -16 202 0 101 3 116 56 290 107
352 216 631 336 858 63 120 237 420 244 420 2 0 -8 -26 -22 -57 -115 -258
-231 -575 -269 -733 -10 -41 -30 -100 -45 -130 -33 -67 -75 -194 -90 -275 -7
-33 -13 -173 -15 -312 -2 -138 -6 -267 -9 -285 -6 -31 -5 -31 10 7 11 29 18
97 24 240 9 226 27 336 73 445 l32 75 6 -82 c3 -46 19 -132 35 -192 27 -107
28 -113 17 -214 -14 -121 -30 -166 -108 -301 -68 -118 -109 -213 -135 -317
-37 -143 -111 -493 -108 -508 2 -9 12 20 22 64 53 231 89 369 117 448 18 48
33 86 35 85 1 -2 -2 -39 -7 -83 -6 -48 -6 -122 -1 -185 l9 -105 2 143 c2 218
29 325 125 486 47 79 86 177 86 216 0 37 18 21 24 -23 5 -32 1 -57 -19 -107
-38 -95 -65 -205 -70 -285 l-5 -70 14 85 c14 82 66 260 85 289 21 33 42 -165
48 -456 l5 -261 -98 -73 c-126 -92 -219 -182 -249 -240 -15 -28 -40 -126 -65
-250 -51 -247 -113 -495 -138 -552 -11 -23 -41 -71 -68 -106 -83 -109 -88
-118 -27 -55 l58 61 0 -111 c0 -84 7 -135 25 -209 13 -55 26 -94 28 -89 1 5
-7 47 -19 93 -15 58 -22 115 -22 184 0 92 3 109 42 221 23 66 54 171 69 233
15 62 32 113 37 113 17 2 105 -184 126 -267 11 -44 24 -147 30 -230 5 -82 14
-172 19 -200 l9 -50 -5 60 c-3 33 -9 128 -14 210 -13 222 -46 345 -132 478
l-31 48 13 72 c19 107 66 287 77 298 7 7 9 2 6 -15 -8 -37 15 -177 38 -238 10
-29 17 -42 14 -28 -3 14 -12 54 -20 90 -17 78 -19 165 -4 224 8 32 26 59 72
104 55 53 189 152 207 152 9 0 20 -89 20 -163 0 -49 -6 -69 -44 -140 -84 -155
-126 -329 -126 -527 0 -146 -17 -335 -36 -399 -17 -58 -13 -83 5 -29 19 60 31
165 41 355 8 171 22 289 35 301 3 3 5 -6 5 -19 0 -52 66 -327 76 -317 2 2 -8
44 -21 93 -14 49 -32 135 -40 191 l-15 102 26 74 c24 66 69 162 92 196 6 9 13
-25 21 -95 7 -59 30 -229 53 -378 38 -247 41 -286 41 -460 -1 -195 -17 -373
-54 -579 -11 -61 -22 -120 -25 -131 -4 -15 -3 -17 4 -5 13 21 58 251 78 405
25 192 24 486 -4 689 -12 88 -20 161 -18 163 6 6 73 -108 102 -173 45 -101 74
-231 90 -404 18 -197 39 -329 61 -388 21 -56 28 -48 8 9 -22 62 -42 200 -55
379 -18 258 -61 407 -163 568 l-55 87 -11 146 c-11 141 -13 225 -6 204 2 -5
15 -48 30 -95 43 -134 104 -262 207 -435 124 -209 169 -294 203 -383 15 -40
29 -71 31 -69 7 7 -39 123 -79 202 -19 39 -82 151 -139 250 -167 290 -258 557
-258 754 0 44 2 81 5 81 3 0 39 -23 80 -50 150 -101 274 -238 314 -346 12 -30
52 -211 90 -402 77 -385 100 -478 141 -569 28 -62 125 -197 174 -242 46 -43
28 -10 -49 91 -42 53 -86 119 -99 145 -44 87 -87 268 -170 712 -62 329 -75
364 -170 468 -33 36 -115 110 -183 165 l-123 99 6 257 c7 263 5 291 -36 562
-48 322 -46 517 6 696 40 139 44 142 71 54 38 -119 61 -235 74 -372 12 -131
10 -205 -12 -586 -13 -227 -5 -402 21 -462 9 -23 10 -22 5 10 -14 80 -16 401
-5 520 34 359 16 782 -45 1065 -5 25 6 55 65 170 81 160 95 179 87 120 -3 -22
-9 -119 -13 -215 -7 -202 6 -375 37 -459 30 -84 45 -149 84 -364 l34 -196 -29
-72 c-65 -156 -101 -332 -98 -479 l1 -85 8 115 c4 63 16 156 27 205 31 138
102 322 102 263 0 -7 7 -72 16 -144 l16 -130 -33 -195 c-28 -161 -33 -220 -34
-349 0 -173 15 -241 80 -370 31 -60 85 -142 85 -128 0 3 -27 69 -60 145 -73
171 -82 211 -82 338 0 78 10 145 43 305 37 178 43 220 42 320 -1 118 -18 247
-54 428 -11 57 -19 106 -16 108 6 7 120 -286 150 -386 14 -47 35 -120 45 -163
l20 -77 -24 -69 c-53 -152 -53 -270 -2 -526 16 -82 34 -193 38 -245 l9 -95 -5
105 c-2 58 -15 161 -29 230 -44 217 -43 350 2 489 20 62 24 56 47 -64 21 -110
44 -197 103 -386 l46 -147 -27 -94 c-54 -190 -55 -364 -2 -595 37 -163 48
-228 57 -338 l7 -100 -3 110 c-2 76 -14 166 -40 295 -35 176 -36 193 -32 340
4 151 28 285 55 312 10 10 128 -320 162 -451 31 -124 61 -296 80 -456 10 -82
18 -129 19 -103 1 69 -35 337 -65 479 -14 68 -53 207 -86 307 -33 101 -57 186
-55 189 7 6 213 -81 252 -107 l30 -20 1 -127 c1 -154 21 -229 119 -452 85
-196 104 -244 125 -326 11 -38 19 -59 19 -46 1 34 -50 182 -125 358 -90 213
-116 318 -112 450 2 56 7 105 10 109 17 16 108 -69 140 -129 10 -21 53 -139
93 -262 80 -243 127 -346 178 -397 48 -48 169 -138 187 -138 17 0 20 -3 -98
91 -86 68 -96 79 -132 154 -37 76 -120 311 -175 496 -45 153 -95 197 -372 331
-127 61 -166 85 -173 104 -30 79 -98 355 -145 591 -76 380 -95 452 -170 668
-124 357 -150 476 -142 675 4 123 53 477 64 466 3 -2 9 -40 14 -83 15 -118 35
-205 80 -348 57 -185 116 -415 133 -520 l14 -90 1 68 c1 85 -15 168 -84 422
-30 110 -62 247 -70 305 -15 107 -18 310 -6 365 l7 30 18 -35 c10 -19 33 -62
51 -95 49 -90 189 -392 211 -455 14 -41 19 -81 18 -155 -1 -86 -6 -117 -38
-219 -84 -269 -105 -425 -72 -518 12 -33 93 -168 101 -168 2 0 -16 42 -38 92
-36 83 -41 102 -41 173 0 72 6 99 66 280 58 175 80 254 91 330 4 26 75 -174
144 -405 66 -221 68 -261 22 -389 -97 -271 -102 -293 -119 -516 -13 -183 -22
-467 -10 -360 4 44 11 123 15 175 10 152 17 214 37 310 l11 55 18 -105 c10
-58 30 -145 44 -194 27 -92 84 -240 91 -233 2 1 -10 36 -26 75 -43 105 -78
239 -100 382 l-19 125 43 130 c24 71 53 150 63 174 l19 44 27 -124 c33 -154
47 -239 92 -554 46 -322 69 -456 94 -528 26 -75 94 -202 132 -247 24 -28 21
-21 -13 35 -55 92 -101 203 -121 290 -17 73 -62 409 -71 530 -5 61 -4 66 7 40
45 -112 136 -276 243 -436 68 -102 142 -225 164 -272 45 -96 61 -116 27 -34
-31 76 -87 173 -194 336 -181 277 -254 457 -298 741 -9 58 -30 168 -46 245
-16 77 -35 172 -40 210 -6 39 -30 131 -54 205 -119 374 -156 492 -153 496 10
9 410 -380 428 -416 95 -185 115 -402 65 -702 -29 -175 -42 -371 -27 -408 8
-19 9 -6 5 50 -6 86 6 196 44 390 45 230 36 460 -24 617 -4 10 23 -16 60 -57
37 -41 65 -80 63 -86 -3 -7 -10 -59 -17 -116 -24 -212 5 -407 111 -733 83
-257 119 -385 135 -490 9 -58 13 -69 14 -40 1 51 -36 214 -89 385 -23 74 -55
179 -71 234 -67 218 -93 448 -70 621 7 50 15 93 19 97 11 11 70 -80 98 -151
14 -35 43 -144 65 -244 94 -433 121 -549 158 -667 21 -69 44 -160 51 -203 17
-101 7 -292 -20 -412 -34 -149 -60 -326 -58 -395 1 -62 1 -62 8 25 9 105 30
228 66 375 18 74 27 146 31 242 l6 138 38 -66 c58 -99 151 -204 274 -308 107
-92 247 -230 293 -291 l22 -30 -16 35 c-16 34 -117 138 -341 350 -123 116
-209 235 -261 362 -51 125 -50 126 39 36 60 -60 120 -107 209 -162 127 -80
210 -138 266 -185 16 -14 9 -6 -16 19 -25 25 -118 93 -206 152 -174 115 -271
207 -333 312 -30 51 -41 90 -83 295 -39 192 -109 494 -134 579 -9 31 68 -121
114 -223 98 -222 235 -475 249 -461 3 2 -14 33 -38 67 -45 66 -149 277 -219
444 -115 274 -210 417 -415 620 -88 88 -249 252 -358 365 l-198 205 -63 195
c-35 107 -66 209 -70 225 -4 17 28 -35 70 -115 82 -157 90 -170 268 -406 66
-88 130 -177 143 -199 32 -57 29 -35 -6 33 -27 53 -94 152 -235 347 -32 44
-80 125 -106 180 -47 98 -94 215 -86 215 3 0 35 -44 72 -97 144 -210 284 -355
479 -498 178 -131 307 -238 354 -292 22 -26 41 -43 41 -37 0 26 -197 200 -400
352 -160 120 -264 229 -349 366 l-43 68 59 -49 c33 -27 129 -98 214 -159 144
-102 232 -180 339 -300 25 -28 40 -44 34 -35 -6 9 -28 44 -48 78 -68 115 -124
166 -417 381 -70 51 -260 284 -245 300 2 2 57 -36 123 -85 141 -105 250 -172
329 -202 33 -13 69 -27 81 -31 32 -13 120 -150 283 -440 57 -102 52 -82 100
-395 11 -71 27 -155 35 -185 8 -30 12 -40 10 -21 -11 76 -36 363 -33 377 2 8
31 -35 64 -96 56 -102 61 -115 53 -148 -17 -75 -3 -220 30 -302 14 -36 13 -14
-4 55 -16 67 -20 221 -6 229 16 10 93 -197 149 -399 13 -44 22 -118 26 -200 3
-71 14 -170 24 -220 25 -114 63 -257 68 -252 3 2 -7 46 -21 98 -32 121 -52
241 -59 354 l-6 90 38 -136 c37 -133 95 -269 152 -359 20 -32 33 -72 44 -138
31 -183 97 -323 235 -505 47 -62 114 -155 149 -207 76 -112 81 -118 54 -64
-12 23 -74 115 -139 205 -144 200 -223 351 -254 485 -12 52 -20 97 -18 99 3 2
37 -40 76 -93 39 -53 114 -147 167 -208 80 -94 96 -119 102 -155 16 -119 75
-249 217 -484 50 -82 115 -197 145 -255 30 -58 51 -94 47 -80 -13 42 -64 138
-160 300 -143 240 -204 376 -218 483 -6 44 1 46 34 11 13 -14 58 -55 99 -90
42 -35 138 -132 215 -216 202 -220 238 -255 149 -148 -151 182 -282 326 -445
490 -170 171 -281 307 -374 457 -37 60 -50 89 -41 91 21 5 249 -83 355 -136
l95 -47 27 -77 c73 -205 149 -300 469 -584 69 -60 141 -133 160 -162 19 -28
39 -52 43 -52 31 -1 -168 210 -322 341 -102 86 -214 228 -271 343 -52 106 -69
156 -52 156 18 0 104 -84 169 -164 69 -86 137 -161 168 -186 10 -8 -38 55
-107 141 -69 86 -131 165 -139 176 -45 64 -286 187 -544 278 l-90 32 -33 63
c-17 35 -30 65 -29 67 2 2 35 -18 73 -43 38 -25 103 -64 146 -85 76 -38 307
-123 315 -115 2 2 -40 19 -94 36 -54 18 -135 50 -179 71 -99 47 -255 148 -278
180 -23 33 -69 181 -101 324 -66 299 -233 697 -499 1193 -36 67 -63 122 -60
122 3 0 61 -38 128 -85 l123 -85 7 -60 c22 -196 100 -361 289 -613 74 -98 150
-212 171 -253 42 -86 57 -99 22 -20 -31 70 -77 142 -196 302 -106 144 -181
280 -204 368 -8 31 -18 95 -22 143 -8 98 -13 96 76 28 149 -114 223 -206 280
-349 17 -42 56 -173 86 -291 141 -554 183 -637 376 -739 81 -43 80 -40 -8 27
-82 61 -138 126 -174 201 -30 63 -93 296 -88 327 3 15 14 13 107 -22 57 -22
110 -44 116 -49 7 -6 15 -38 19 -73 16 -158 95 -363 204 -527 28 -41 98 -131
157 -200 138 -162 255 -323 286 -394 23 -54 48 -81 29 -32 -33 87 -153 259
-339 486 -91 110 -187 271 -230 385 -35 94 -71 246 -71 303 l0 33 40 -22 c26
-15 43 -32 46 -49 48 -216 112 -364 235 -537 46 -64 102 -150 126 -192 24 -41
43 -72 43 -68 0 19 -49 103 -140 238 -54 80 -112 174 -130 208 -38 76 -96 248
-106 315 l-7 49 62 -43 c110 -77 136 -122 231 -395 105 -302 156 -416 217
-490 48 -56 273 -211 273 -187 0 5 -26 26 -57 48 -32 21 -90 65 -130 97 -68
54 -76 64 -127 170 -60 121 -113 261 -196 512 -47 142 -58 164 -98 207 -71 76
-215 154 -530 288 -40 17 -54 29 -58 49 -4 14 -26 104 -50 200 -24 96 -44 176
-44 177 0 1 26 -8 58 -21 54 -21 59 -27 102 -102 70 -123 105 -170 215 -283
56 -58 114 -123 129 -145 14 -22 26 -35 26 -28 0 15 -62 92 -152 188 -91 97
-157 192 -179 259 -10 28 -16 52 -14 54 2 2 28 -3 58 -12 l55 -16 50 -102
c102 -207 207 -333 476 -568 66 -58 141 -133 168 -168 26 -35 48 -59 48 -54 0
27 -144 178 -302 318 -170 151 -278 298 -338 462 -32 87 -30 90 27 69 22 -8
48 -35 84 -87 70 -100 173 -201 289 -282 53 -37 115 -87 139 -110 25 -24 38
-34 30 -22 -18 27 -62 64 -185 156 -55 42 -127 105 -160 141 -62 68 -131 173
-121 184 22 22 247 -73 411 -174 l79 -48 59 -164 c32 -90 72 -213 89 -275 88
-317 121 -391 264 -591 133 -184 160 -212 60 -62 -136 207 -261 444 -243 462
3 3 32 -10 65 -30 128 -76 333 -146 468 -159 45 -4 33 0 -50 18 -165 36 -294
86 -436 172 l-57 34 -21 87 c-27 107 -84 283 -122 381 -16 40 -29 78 -29 84 0
17 106 -88 143 -142 61 -89 212 -241 349 -350 l53 -42 -61 59 c-91 87 -188
196 -269 303 -110 145 -206 234 -342 316 l-56 34 79 -6 c43 -2 165 -1 269 5
l190 9 -195 -3 c-272 -4 -350 6 -478 62 -57 25 -143 54 -190 65 -171 39 -258
71 -415 151 -141 72 -162 85 -189 126 -17 25 -99 114 -182 196 -150 149 -262
238 -403 319 -40 22 -73 44 -73 49 0 4 52 7 115 7 l115 0 42 -46 c51 -55 195
-177 330 -279 98 -74 139 -100 348 -215 139 -76 296 -178 329 -214 14 -14 29
-26 34 -26 20 0 -38 51 -123 109 -47 33 -162 103 -255 156 -221 126 -307 188
-430 310 -84 83 -165 180 -165 198 0 2 15 1 34 -2 25 -5 51 -25 106 -84 164
-176 413 -344 668 -451 227 -96 447 -208 531 -273 24 -18 49 -33 55 -33 6 0
-20 22 -57 49 -78 57 -239 144 -412 222 -188 84 -314 151 -424 223 -55 37
-101 68 -101 70 0 1 57 -26 128 -61 108 -54 478 -190 489 -179 2 1 -59 25
-134 52 -283 101 -587 273 -687 389 -26 31 -46 58 -43 61 2 3 25 0 51 -6 31
-7 73 -30 120 -65 155 -117 243 -156 466 -210 58 -14 127 -36 154 -50 27 -14
44 -19 37 -11 -18 22 -103 53 -236 86 -66 16 -151 45 -190 64 -73 36 -227 157
-208 163 11 4 85 -10 253 -47 47 -10 136 -26 198 -34 79 -11 143 -28 209 -54
l96 -37 17 -50 c48 -142 117 -239 290 -410 67 -66 136 -139 153 -162 36 -51
46 -56 20 -12 -10 17 -84 100 -164 183 -181 190 -224 250 -270 383 l-18 53 22
-11 c110 -58 188 -134 277 -269 88 -132 174 -218 400 -399 335 -269 365 -283
58 -26 -195 163 -305 275 -411 423 -81 112 -81 119 -1 72 97 -56 252 -122 374
-159 58 -18 124 -39 148 -47 24 -9 46 -14 49 -11 3 3 -48 22 -113 43 -282 88
-487 191 -618 312 -37 34 -94 71 -150 98 -100 49 -106 53 -74 48 13 -2 118
-10 233 -19 116 -8 251 -22 300 -30 131 -22 352 -79 489 -125 66 -22 121 -38
123 -36 6 5 -163 65 -292 102 -178 52 -337 81 -565 104 -405 41 -506 57 -880
140 -337 75 -409 86 -665 105 -115 8 -249 21 -296 29 -181 32 -338 107 -444
211 -57 56 -217 274 -235 320 -5 11 -13 133 -20 270 -33 761 -40 942 -50 1342
-14 523 -6 700 33 787 41 90 105 175 216 290 199 204 437 374 736 526 173 88
276 124 391 136 l60 6 57 -54 c46 -43 57 -60 57 -86 0 -25 -6 -35 -29 -46 -46
-24 -64 -61 -59 -122 5 -58 48 -137 70 -128 23 8 87 105 94 139 6 36 -11 78
-45 109 -12 11 -21 28 -21 39 0 17 3 16 34 -10 19 -15 35 -37 35 -48 2 -37 38
-81 85 -103 51 -24 181 -50 193 -39 10 11 -23 69 -61 108 -45 47 -105 70 -173
68 -51 -2 -58 0 -82 28 -70 83 -91 113 -79 113 7 0 -5 9 -27 19 l-40 18 85 6
c47 4 145 7 219 7 l133 0 62 -37 c139 -84 166 -114 130 -144 -26 -21 -44 -66
-44 -107 0 -39 62 -182 79 -182 19 0 61 119 61 171 0 47 -5 60 -35 98 -19 24
-35 46 -35 48 0 2 16 -8 36 -24 44 -33 124 -129 124 -149 0 -8 4 -14 9 -14 13
0 0 -44 -16 -53 -22 -13 -44 -66 -45 -107 0 -50 18 -104 55 -164 28 -45 32
-47 44 -30 14 19 53 136 53 158 0 33 -25 91 -51 121 -17 19 -29 42 -27 52 2
13 15 -1 41 -44 21 -34 52 -76 69 -95 17 -18 39 -46 49 -62 17 -27 16 -30 -2
-60 -25 -41 -24 -99 2 -153 26 -54 119 -157 130 -146 5 5 12 43 15 84 9 103
-5 140 -77 211 -33 31 -59 61 -59 66 0 18 95 -37 134 -77 55 -56 111 -69 211
-46 42 9 75 22 75 28 -1 14 -80 76 -130 102 -51 27 -131 25 -170 -3 -27 -21
-35 -22 -65 -12 -19 6 -58 34 -87 62 -52 50 -53 51 -28 58 25 6 24 6 -6 13
-24 4 -38 17 -58 52 -15 25 -47 71 -72 101 -44 54 -44 54 -17 49 19 -4 13 1
-17 15 -25 12 -63 38 -85 60 -22 21 -80 65 -128 98 -48 33 -84 62 -80 65 4 2
26 8 48 11 55 10 176 44 259 73 l68 23 77 -21 c99 -28 181 -65 181 -81 0 -7
-7 -22 -15 -32 -25 -33 -19 -96 14 -147 34 -53 98 -115 108 -106 4 4 9 47 11
96 l4 88 -37 41 c-20 23 -45 44 -56 47 -10 4 -19 11 -19 16 0 5 19 0 43 -12
85 -44 146 -89 163 -120 15 -30 15 -35 0 -60 -20 -33 -21 -89 -2 -133 15 -37
105 -136 123 -136 15 0 23 36 23 110 0 77 -20 116 -79 157 -22 16 -44 39 -50
52 -11 21 -9 21 27 -8 21 -16 45 -38 53 -47 23 -28 130 -94 141 -88 7 4 8 2 4
-5 -4 -6 -3 -18 3 -25 6 -7 7 -24 2 -42 -18 -69 22 -138 120 -203 83 -55 93
-54 85 9 -15 113 -65 190 -138 212 -21 6 -45 19 -54 30 -16 17 -16 18 2 18 10
1 -2 9 -28 19 -25 10 -61 29 -80 42 l-33 24 49 6 c32 3 65 0 100 -12 80 -28
147 -5 225 74 l43 45 -58 12 c-128 27 -230 -3 -260 -76 -13 -32 -17 -34 -64
-34 -44 0 -54 5 -100 45 -28 25 -70 58 -93 73 l-41 27 36 3 c24 2 54 -6 87
-22 58 -30 91 -32 150 -11 46 16 131 71 131 85 0 14 -91 41 -160 47 -55 5 -73
2 -108 -16 -24 -12 -48 -33 -54 -46 -16 -35 -80 -34 -150 1 -71 36 -215 91
-261 99 -21 4 -35 11 -30 14 17 15 140 62 183 70 27 5 35 9 20 10 -22 1 -20 4
18 26 24 13 81 52 127 85 46 33 101 67 122 75 21 7 32 14 24 14 -26 2 16 37
59 50 52 15 94 52 113 99 17 41 33 152 23 152 -4 0 -26 -10 -49 -21 -126 -65
-162 -110 -155 -194 4 -46 1 -58 -16 -74 -20 -18 -185 -131 -192 -131 -2 0 1
10 7 23 6 12 30 34 54 49 51 31 76 74 78 132 1 54 -12 136 -23 136 -19 0 -110
-94 -129 -133 -26 -54 -26 -93 -1 -135 23 -37 19 -51 -27 -94 -27 -26 -181
-103 -190 -95 -2 2 15 16 37 31 57 38 80 79 80 146 0 30 -5 72 -11 93 l-10 38
-42 -34 c-98 -79 -134 -180 -86 -241 30 -38 20 -45 -131 -94 -225 -74 -232
-75 -485 -77 -360 -3 -581 -48 -886 -179 l-36 -15 -2 84 c-2 114 3 128 50 149
24 11 50 34 66 57 21 33 25 50 25 109 -1 109 -9 114 -77 49 -83 -79 -101 -125
-74 -195 5 -16 7 -46 3 -68 -5 -34 -8 -37 -17 -21 -6 11 -9 40 -8 66 3 61 -31
102 -116 141 -87 39 -95 38 -87 -14 15 -104 79 -178 155 -178 32 0 41 -5 54
-30 17 -34 19 -80 5 -130 -9 -31 -21 -41 -113 -89 -213 -112 -471 -290 -660
-456 -97 -85 -110 -86 -122 -15 -10 58 13 252 41 350 34 117 135 321 231 465
92 138 248 342 272 354 43 22 253 63 331 65 l85 1 -3 -33 c-3 -27 3 -40 35
-71 35 -35 148 -89 161 -76 3 2 0 23 -7 46 -18 60 -66 107 -126 124 l-50 13
67 1 c68 1 158 -14 191 -31 16 -8 16 -11 2 -31 -8 -12 -15 -39 -15 -59 0 -31
8 -47 39 -81 46 -49 97 -82 106 -67 3 5 7 36 7 67 2 75 -19 116 -72 139 -55
25 -42 30 22 9 78 -26 126 -52 144 -80 14 -22 14 -26 0 -47 -38 -53 -4 -131
80 -187 26 -17 51 -31 55 -31 12 0 22 84 14 122 -11 51 -31 76 -85 103 -28 14
-50 30 -50 35 0 15 8 12 56 -21 25 -17 68 -41 97 -54 79 -37 86 -45 80 -91 -7
-57 26 -101 107 -141 36 -17 76 -34 89 -38 23 -7 24 -6 17 35 -15 93 -73 163
-148 175 -47 8 -97 40 -76 48 7 3 3 6 -9 6 -27 1 -93 31 -93 43 0 4 -7 8 -16
8 -8 0 -36 14 -60 31 -70 48 -188 99 -288 124 -101 26 -103 24 64 50 58 9 158
34 223 55 80 28 137 40 180 42 l62 1 -50 6 c-49 6 -49 6 -22 19 15 6 45 12 67
12 52 0 88 15 128 53 33 31 72 95 72 117 0 13 -48 5 -134 -21 -75 -23 -126
-70 -126 -116 0 -38 -4 -40 -125 -82 -98 -34 -112 -37 -97 -18 6 7 34 19 62
26 70 18 106 51 125 114 18 60 19 97 4 97 -29 0 -140 -64 -169 -97 -30 -33
-32 -41 -27 -84 3 -27 2 -51 -4 -54 -5 -4 -6 -11 -3 -17 4 -7 2 -8 -4 -4 -6 4
-24 0 -40 -8 -16 -8 -60 -20 -98 -26 -38 -6 -79 -13 -91 -16 -13 -2 -23 0 -23
5 0 4 17 11 38 15 84 14 129 66 139 163 l6 54 -44 -17 c-57 -23 -108 -55 -138
-88 -23 -25 -30 -59 -20 -111 6 -27 -39 -34 -251 -35 -96 -1 -212 -7 -257 -13
l-81 -13 48 57 c143 163 396 369 456 369 13 0 23 5 21 12 -1 6 46 31 105 55
196 80 329 93 336 33 5 -43 25 -71 71 -98 37 -21 60 -27 133 -30 48 -3 88 -1
88 4 0 5 -21 35 -46 67 -59 75 -113 102 -188 93 -29 -4 -63 -2 -76 3 -23 9
-22 10 15 11 116 6 321 -12 337 -28 5 -5 4 -21 -3 -35 -16 -36 2 -96 41 -135
31 -32 100 -75 138 -86 20 -7 22 -4 22 36 l0 43 16 -32 c9 -18 30 -43 48 -56
29 -23 129 -77 141 -77 3 0 5 19 5 43 0 105 -46 174 -134 201 -30 10 -62 26
-72 37 -22 25 -15 24 54 -5 31 -13 73 -27 92 -31 57 -12 110 -43 104 -60 -18
-45 40 -121 117 -154 47 -21 149 -40 149 -29 0 3 -7 22 -16 43 -42 101 -99
149 -189 158 -27 3 -59 8 -69 13 -19 7 -19 8 0 15 15 6 13 8 -12 8 -17 1 -54
8 -84 17 l-53 16 42 19 c26 11 66 19 97 19 30 0 69 6 87 13 52 22 148 141 133
166 -6 9 -115 -4 -164 -20 -63 -21 -136 -108 -117 -140 4 -5 -14 -19 -39 -30
l-46 -20 -102 35 c-57 19 -133 40 -170 47 -38 6 -68 13 -68 14 0 7 281 96 398
126 127 34 288 47 406 34 80 -8 99 -23 83 -64 -8 -22 -8 -39 1 -67 6 -21 10
-39 9 -40 -1 -1 -27 2 -57 6 -119 16 -221 -16 -252 -80 -10 -19 -28 -38 -40
-42 -20 -5 -18 -6 7 -6 17 1 50 -5 74 -11 76 -21 138 -1 228 75 l51 44 34 -31
c18 -17 50 -39 71 -50 l37 -19 0 43 c0 68 -26 142 -61 171 -17 14 -36 26 -43
26 -7 0 -21 7 -32 15 -17 13 -15 13 19 4 117 -32 163 -70 145 -121 -22 -62 22
-140 110 -197 66 -42 73 -41 66 17 -10 82 -24 121 -55 156 l-29 34 57 -18 c43
-13 63 -26 80 -51 13 -18 23 -29 23 -23 0 6 -9 23 -20 36 -10 14 -16 28 -13
32 3 3 -7 6 -24 6 -16 0 -58 14 -93 31 l-63 32 38 18 c22 11 60 19 90 19 83 0
156 61 195 164 l11 29 -63 -7 c-110 -11 -180 -60 -194 -138 -15 -74 -59 -84
-174 -37 -93 38 -87 51 21 42 75 -6 105 5 155 59 35 37 64 78 64 90 0 12 -145
10 -177 -3 -41 -15 -73 -48 -93 -96 -21 -48 -56 -61 -117 -44 -21 6 -85 14
-143 18 l-106 6 96 50 c52 27 140 78 194 113 122 78 159 84 209 30 44 -46 103
-62 182 -47 73 13 146 41 139 52 -3 5 -34 25 -70 45 -90 50 -164 57 -229 20
-27 -14 -63 -26 -83 -26 l-36 0 75 70 c70 65 77 69 122 70 41 0 49 -3 57 -24
5 -13 25 -37 46 -52 30 -24 49 -29 107 -32 70 -4 177 12 177 28 0 14 -108 92
-147 106 -50 17 -91 17 -143 -1 -23 -8 -63 -15 -87 -15 -41 0 -44 2 -32 16 7
9 36 29 64 45 27 16 45 29 38 29 -27 0 2 32 47 51 59 25 85 52 105 108 19 54
21 161 3 161 -25 -1 -123 -77 -152 -118 -32 -45 -40 -118 -17 -146 11 -13 9
-21 -9 -46 -12 -16 -25 -30 -29 -30 -5 0 -41 -30 -80 -66 -39 -36 -71 -61 -71
-54 0 12 60 70 73 70 14 0 47 83 47 119 0 40 -29 151 -40 151 -16 0 -93 -94
-112 -137 -25 -56 -20 -114 12 -148 26 -28 21 -56 -19 -98 -34 -37 -135 -110
-105 -76 35 39 44 65 44 122 0 54 -25 147 -40 147 -13 0 -78 -77 -100 -119
-32 -64 -20 -169 22 -183 22 -8 -2 -27 -100 -82 -171 -95 -240 -123 -372 -151
-69 -15 -198 -51 -288 -81 -90 -30 -171 -54 -180 -54 -9 0 24 26 73 59 50 32
116 81 148 109 31 28 75 57 97 63 36 11 42 10 63 -8 39 -37 96 -48 156 -30 60
18 163 77 158 91 -6 19 -102 45 -167 46 -67 0 -87 -8 -140 -55 -14 -13 -41
-26 -60 -30 l-34 -8 33 39 c19 20 49 62 68 91 50 79 114 97 159 44 48 -57 146
-59 263 -5 54 24 55 26 36 41 -88 68 -201 82 -276 35 -42 -27 -129 -49 -129
-32 0 13 89 90 124 107 19 9 40 13 48 9 7 -4 24 -13 38 -21 33 -19 101 -19
147 0 42 18 143 91 143 104 0 14 -84 31 -152 31 -68 0 -115 -21 -150 -66 -18
-22 -106 -69 -115 -61 -9 10 12 38 49 63 53 37 78 88 78 162 0 73 -9 122 -23
122 -6 0 -19 -7 -29 -17 -10 -9 -19 -14 -21 -12 -81 110 -116 133 -195 127
-31 -3 -66 -9 -76 -13 -13 -6 -17 -5 -13 3 4 6 50 25 103 42 76 26 104 31 140
25 29 -4 44 -11 44 -21 0 -34 33 -76 73 -95 43 -19 164 -25 215 -11 22 7 21 9
-28 64 -65 74 -126 95 -205 75 -27 -8 -61 -10 -75 -7 -28 8 -28 8 119 30 40 6
82 15 92 20 10 6 24 10 32 10 8 0 34 18 58 40 29 26 63 46 99 56 78 23 129 78
159 173 13 40 20 75 18 78 -10 9 -75 -18 -135 -56 -79 -51 -105 -90 -110 -162
-4 -54 -7 -60 -41 -84 -35 -24 -137 -65 -161 -65 -21 0 56 81 100 106 25 13
55 39 67 57 28 41 46 128 37 184 l-6 42 -42 -28 c-120 -84 -175 -195 -130
-260 15 -21 15 -24 -13 -59 -20 -24 -42 -39 -64 -44 -19 -4 -72 -14 -118 -23
-45 -9 -90 -19 -98 -22 -40 -15 49 58 93 77 88 37 127 94 142 210 5 33 7 60 5
60 -18 0 -109 -57 -150 -94 -59 -53 -78 -98 -69 -161 7 -41 5 -44 -35 -79 -24
-20 -47 -36 -53 -36 -15 0 -244 -114 -281 -139 -38 -27 -49 -27 -34 0 6 12 19
46 30 76 10 30 32 72 49 93 29 36 33 38 84 38 59 -1 100 18 148 69 27 29 98
140 98 155 0 14 -37 9 -105 -14 -86 -28 -148 -82 -170 -147 -8 -26 -28 -60
-44 -75 l-29 -27 19 78 c10 43 19 92 19 109 0 24 9 40 34 62 32 28 39 30 93
25 47 -4 67 -1 99 15 52 27 164 146 164 175 0 17 -133 0 -184 -23 -49 -24 -91
-66 -112 -115 -7 -16 -29 -43 -48 -58 l-36 -28 0 25 c0 34 28 104 57 144 19
25 31 32 59 32 80 0 154 62 204 172 16 37 30 72 30 78 0 15 -30 6 -117 -36
-85 -41 -117 -76 -139 -152 -9 -30 -33 -77 -53 -102 -38 -48 -46 -76 -66 -235
l-7 -50 -12 30 c-9 21 -9 42 -3 71 20 87 -17 156 -111 207 -58 32 -62 28 -62
-56 0 -113 53 -197 124 -197 32 0 36 -3 45 -37 6 -21 11 -44 11 -51 0 -24 -62
-202 -71 -202 -4 0 -3 15 2 32 19 68 0 136 -50 176 -18 14 -107 62 -116 62 -9
0 -5 -134 6 -174 15 -54 57 -94 108 -102 27 -4 41 -12 41 -21 0 -9 -21 -61
-47 -117 -57 -122 -123 -230 -123 -201 0 11 14 40 30 64 20 29 30 56 30 81 0
41 -48 146 -81 176 -24 22 -28 17 -59 -64 -37 -98 -18 -195 45 -224 40 -18 33
-59 -22 -137 -76 -107 -186 -244 -341 -424 -138 -160 -147 -169 -225 -208
-111 -56 -225 -133 -329 -223 -48 -42 -90 -76 -94 -76 -7 0 4 135 16 201 9 48
56 179 68 191 5 5 26 -1 47 -13 70 -36 195 -8 256 57 l21 23 -38 10 c-112 28
-190 18 -243 -32 -30 -29 -32 -30 -21 -7 30 60 81 118 120 135 39 17 41 17 80
0 57 -26 126 -23 186 8 56 29 112 73 104 81 -12 12 -155 27 -197 21 -32 -5
-57 -17 -87 -44 -22 -20 -54 -42 -71 -49 l-30 -13 36 33 c66 61 143 123 158
130 14 6 14 7 -1 7 -16 1 -15 4 3 36 38 63 61 75 139 68 58 -5 75 -2 115 17
44 21 125 107 125 132 0 7 -27 9 -79 5 -99 -6 -165 -34 -189 -79 -22 -43 -83
-100 -99 -94 -7 3 -13 -1 -13 -10 0 -30 -41 -93 -87 -134 l-48 -42 -7 43 c-4
30 -1 58 9 86 13 35 13 48 2 80 -12 39 -111 143 -135 143 -27 0 -35 -139 -11
-187 19 -37 44 -58 90 -76 34 -15 37 -19 37 -55 0 -35 -7 -47 -60 -102 -55
-57 -60 -60 -60 -36 0 14 9 40 20 58 39 64 18 138 -58 212 l-41 39 -16 -39
c-9 -22 -19 -64 -22 -94 -4 -46 -1 -61 19 -90 13 -19 38 -42 55 -50 26 -12 33
-21 33 -44 0 -28 -85 -214 -105 -228 -5 -4 -7 -10 -3 -13 4 -4 1 -23 -6 -43
-7 -21 -17 -59 -21 -87 l-8 -50 -9 35 c-5 19 -28 54 -50 77 -41 42 -135 100
-145 89 -4 -3 -1 -30 6 -60 17 -77 59 -131 129 -164 53 -25 57 -30 60 -65 3
-36 -3 -43 -127 -175 -194 -205 -336 -388 -468 -603 l-61 -100 -6 73 c-2 40
-10 132 -15 203 -6 72 -11 172 -11 223 l0 93 33 14 c17 8 28 14 24 15 -5 0 20
32 54 70 l63 71 53 -7 c93 -11 178 40 228 137 l17 32 -68 -6 c-129 -12 -193
-46 -210 -112 -8 -32 -66 -88 -75 -73 -4 5 -9 -1 -13 -15 -8 -32 -98 -116
-104 -97 -9 25 20 435 33 472 7 21 10 57 8 80 -9 81 59 584 107 795 19 79 26
97 55 122 55 48 163 104 190 98 20 -3 23 -2 14 9 -12 15 18 30 128 64 78 24
103 25 104 5 1 -8 3 -19 4 -25 1 -5 3 -16 4 -24 2 -24 51 -76 91 -96 40 -20
129 -44 137 -36 2 2 -9 31 -26 63 -41 81 -87 120 -153 130 l-53 7 45 7 c78 13
134 9 178 -11 34 -15 42 -24 42 -45 0 -51 43 -107 105 -137 37 -19 134 -42
142 -35 8 9 -37 96 -70 134 -39 45 -76 63 -129 63 -24 0 -52 7 -62 15 -20 15
-20 15 0 15 10 0 65 -9 122 -19 130 -23 148 -38 154 -121 3 -43 11 -67 31 -93
27 -35 104 -89 146 -102 23 -7 24 -6 17 36 -9 57 -41 128 -72 160 -14 15 -45
32 -69 39 -24 7 -57 27 -75 45 l-31 32 41 7 c23 3 58 2 79 -4 30 -8 41 -18 55
-50 28 -63 88 -93 198 -98 48 -3 88 -1 88 3 0 17 -74 98 -113 123 -37 24 -49
27 -136 27 -99 1 -136 9 -110 26 8 5 37 9 65 9 36 0 61 7 85 23 34 22 81 98
94 148 l6 26 -57 -9 c-121 -19 -184 -70 -184 -149 0 -32 -4 -38 -37 -53 -43
-19 -115 -24 -187 -12 l-49 8 39 31 c21 18 57 38 80 45 24 7 53 25 67 42 26
30 47 105 47 166 l0 34 -37 -15 c-56 -24 -114 -66 -135 -100 -15 -23 -18 -43
-15 -87 5 -55 4 -59 -26 -84 -29 -24 -37 -26 -91 -20 -32 3 -75 6 -94 6 l-35
0 26 20 c15 12 40 20 64 20 76 0 137 70 158 182 l7 36 -42 -9 c-66 -15 -139
-57 -160 -92 -12 -20 -20 -50 -20 -79 0 -67 -9 -71 -250 -113 l-35 -6 35 13
c53 20 88 78 101 171 15 98 6 109 -49 65 -78 -63 -108 -125 -97 -201 8 -49 3
-55 -65 -80 -25 -9 -89 -41 -142 -71 -54 -29 -98 -52 -98 -51 0 15 69 193 92
240 46 91 125 209 211 318 65 81 82 97 105 97 43 0 246 38 350 65 52 14 104
25 117 25 13 0 25 4 27 8 2 4 44 27 94 51 66 31 98 41 115 36 18 -5 20 -4 9 4
-12 8 -8 13 22 26 21 8 44 15 52 15 8 0 26 11 40 25 19 18 36 25 66 25 57 0
101 21 138 66 31 37 78 142 68 151 -9 10 -116 -21 -162 -46 -60 -32 -94 -81
-94 -132 0 -46 -13 -57 -125 -100 -42 -16 -87 -36 -98 -44 -30 -21 -43 -19
-23 3 9 11 34 24 55 30 83 25 126 87 137 196 4 36 4 66 0 66 -23 0 -108 -52
-147 -90 -53 -51 -70 -102 -51 -154 19 -48 -20 -80 -141 -117 -54 -17 -100
-29 -103 -27 -2 3 21 15 51 27 73 31 106 83 113 182 4 58 2 69 -11 69 -22 0
-137 -80 -160 -111 -23 -32 -33 -108 -18 -137 10 -18 8 -24 -11 -36 -25 -15
-280 -61 -300 -53 -20 7 178 194 347 329 83 66 167 136 187 155 l37 36 35 -31
c20 -17 51 -33 74 -37 43 -7 141 13 190 39 l27 14 -65 31 c-80 38 -157 42
-208 11 -54 -33 -56 -23 -10 42 l43 63 95 23 c68 16 139 25 246 29 138 5 154
4 197 -15 40 -18 47 -25 47 -50 0 -78 91 -143 243 -172 43 -8 44 -4 17 50 -48
95 -125 149 -210 150 -25 0 -54 7 -64 15 -25 19 -17 19 75 1 71 -14 239 -28
210 -18 -27 9 84 42 142 42 71 0 115 17 150 60 27 31 67 101 67 116 0 4 -33 4
-74 1 -126 -9 -203 -58 -213 -136 -5 -37 -9 -41 -51 -55 -46 -16 -153 -22
-165 -9 -12 11 65 56 111 64 52 10 97 40 116 77 16 31 39 143 31 150 -10 10
-111 -28 -157 -58 -54 -36 -72 -74 -66 -135 4 -33 1 -48 -11 -58 -39 -34 -56
-37 -136 -22 -42 8 -102 15 -133 15 l-57 0 40 25 c28 17 55 24 89 25 88 0 155
62 186 172 l9 31 -56 -6 c-119 -12 -218 -90 -211 -167 3 -32 0 -37 -37 -54
-26 -13 -73 -22 -140 -27 -90 -7 -248 -33 -267 -45 -16 -10 -5 14 51 111 38
67 67 105 88 118 30 17 35 17 80 2 53 -18 97 -14 153 15 43 23 137 117 126
127 -4 5 -49 8 -99 8 -113 0 -158 -19 -196 -81 -14 -23 -41 -49 -58 -58 -38
-18 -38 -19 -19 31 8 21 22 63 30 94 15 52 20 58 56 73 39 15 42 15 70 -6 66
-48 187 -20 288 68 l37 31 -72 17 c-123 28 -187 16 -245 -45 -31 -33 -105 -75
-114 -66 -10 10 49 109 79 131 33 25 37 26 80 14 52 -13 111 -1 160 34 32 23
107 114 107 130 0 7 -31 9 -88 6 -109 -5 -168 -34 -200 -99 -11 -22 -39 -56
-61 -76 -40 -34 -41 -34 -41 -10 0 13 9 32 21 43 59 53 65 132 17 225 -18 34
-38 64 -45 66 -16 6 -60 -73 -74 -135 -16 -67 -1 -123 41 -154 37 -27 38 -54
6 -134 -13 -32 -27 -76 -31 -97 -5 -26 -11 -35 -18 -28 -6 6 -4 23 7 51 35 89
17 151 -71 236 -53 52 -55 51 -73 -43 -8 -47 -8 -74 0 -105 12 -43 63 -108 86
-108 23 0 44 -31 44 -63 0 -32 -77 -207 -91 -207 -4 0 1 19 11 43 25 54 25 81
0 131 -21 44 -115 144 -126 134 -25 -26 -31 -175 -8 -224 18 -37 62 -74 88
-74 47 0 23 -54 -98 -223 -47 -67 -80 -99 -145 -147 -47 -33 -88 -57 -92 -53
-9 11 -47 132 -51 163 -3 22 1 25 38 30 22 3 55 16 72 29 41 29 81 107 89 172
l6 49 -39 -16 c-59 -25 -123 -72 -145 -107 -11 -19 -19 -51 -19 -77 -1 -35 -3
-41 -11 -28 -9 16 -13 117 -10 228 1 25 10 91 20 148 16 86 24 109 47 133 22
23 34 28 55 24 41 -9 101 11 142 47 34 31 107 140 107 161 0 17 -94 -2 -155
-33 -65 -31 -95 -63 -114 -123 -7 -21 -28 -54 -45 -74 l-33 -35 -7 32 c-3 18
-7 47 -7 64 -1 18 -3 23 -6 13 -9 -36 -32 14 -33 72 0 78 -25 112 -112 156
-94 47 -102 46 -95 -7 17 -113 49 -171 112 -199 28 -12 54 -17 70 -13 22 5 27
1 45 -37 20 -45 26 -158 11 -222 l-6 -27 -36 37 c-21 22 -39 53 -43 73 -3 20
-13 46 -22 58 -21 30 -84 61 -141 69 l-46 6 48 24 c69 33 71 38 23 56 -118 45
-221 38 -268 -17 -7 -9 -24 -16 -37 -16 l-25 0 27 33 c15 17 47 42 72 55 60
31 83 72 83 149 0 34 -4 65 -10 68 -15 9 -67 -22 -110 -65 -48 -48 -61 -100
-36 -144 16 -28 16 -31 -2 -55 -18 -24 -120 -86 -129 -78 -10 11 22 65 58 97
38 36 44 53 39 110 -2 31 -40 120 -50 120 -14 0 -72 -73 -87 -109 -19 -46 -11
-97 23 -132 26 -27 26 -27 9 -63 -10 -20 -23 -36 -31 -36 -13 0 -140 -39 -178
-55 -35 -15 0 30 53 69 63 45 78 89 59 168 -7 28 -18 53 -25 55 -15 5 -90 -63
-109 -98 -20 -40 -18 -101 5 -131 19 -24 19 -24 -4 -54 -13 -17 -54 -48 -91
-70 -36 -21 -95 -65 -129 -96 l-63 -58 -4 62 c-7 91 13 131 69 140 56 9 90 33
114 80 20 38 38 138 26 138 -18 0 -96 -36 -125 -57 -40 -30 -62 -71 -62 -120
-1 -43 -26 -98 -33 -73 -45 150 -45 151 -16 191 18 26 26 29 74 29 43 0 59 5
85 26 31 27 66 85 81 137 l8 29 -41 -6 c-62 -10 -136 -45 -157 -75 -10 -14
-22 -45 -25 -67 -5 -25 -18 -51 -32 -65 -16 -15 -24 -33 -24 -56 0 -45 -16
-33 -25 17 -12 71 -72 122 -174 150 -23 6 -45 9 -47 7 -8 -7 27 -92 53 -129
30 -45 101 -82 144 -76 37 6 60 -23 79 -97 16 -64 24 -273 15 -371 l-7 -75
-19 38 c-10 20 -19 55 -19 78 -1 59 -32 120 -77 148 -45 28 -131 62 -139 54
-9 -9 15 -119 37 -163 25 -52 78 -88 132 -89 34 -1 42 -5 58 -35 27 -52 32
-102 19 -180 l-12 -70 -34 37 c-19 19 -39 53 -44 74 -16 58 -54 96 -113 114
-58 17 -147 20 -147 5 0 -19 48 -105 74 -133 46 -49 122 -70 168 -46 17 9 25
6 54 -22 l35 -34 -3 -107 -3 -107 -21 27 c-12 15 -24 48 -27 75 -4 26 -16 62
-28 79 -25 35 -103 74 -168 84 l-43 7 7 -34 c27 -129 99 -203 193 -198 45 3
48 2 68 -35 12 -21 26 -68 33 -106 6 -37 20 -96 30 -131 11 -35 19 -64 18 -66
-2 -1 -65 57 -142 128 -111 104 -276 232 -325 251 -17 7 -191 300 -186 313 3
8 16 15 28 15 37 0 86 36 108 80 21 41 33 170 18 186 -11 10 -112 -60 -141
-98 -34 -44 -41 -77 -27 -128 19 -72 2 -57 -40 34 -49 107 -51 126 -10 126 40
0 106 60 120 108 12 45 13 162 1 162 -22 0 -121 -77 -145 -114 -25 -36 -27
-48 -23 -101 l6 -60 -25 70 c-14 39 -29 95 -34 125 -5 30 -16 97 -24 148 -9
51 -18 98 -22 103 -9 16 7 69 21 69 24 0 65 44 79 82 19 57 -6 218 -34 218 -4
0 -23 -19 -42 -42z m1533 -389 c17 -12 52 -23 84 -26 33 -4 55 -11 55 -18 0
-6 18 -40 40 -74 30 -46 51 -67 83 -81 48 -22 89 -25 119 -9 19 10 26 7 56
-26 32 -34 34 -41 28 -83 -3 -24 -6 -70 -6 -101 l0 -56 -20 25 c-11 14 -20 34
-20 45 -1 83 -50 143 -142 174 -91 31 -102 29 -93 -16 9 -49 46 -122 80 -155
29 -30 79 -44 124 -35 24 5 31 0 54 -36 15 -22 27 -52 27 -67 0 -14 9 -62 20
-108 23 -96 23 -95 11 -88 -4 3 -11 19 -14 35 -12 57 -92 97 -214 108 -90 7
-93 -2 -23 -76 64 -67 102 -82 192 -80 72 2 87 -6 88 -42 0 -9 -44 -53 -99
-97 -114 -95 -348 -332 -440 -447 -35 -44 -67 -81 -71 -83 -6 -2 -21 74 -35
180 -7 53 0 61 59 65 21 2 53 11 70 21 38 22 88 94 110 158 l16 46 -33 -6
c-55 -11 -155 -65 -178 -97 -11 -16 -23 -48 -26 -70 -7 -46 -23 -63 -23 -22 1
79 20 167 43 202 22 33 29 37 56 33 50 -7 118 33 156 92 31 49 70 144 62 153
-8 7 -112 -37 -161 -67 -50 -32 -85 -90 -86 -141 0 -15 -7 -32 -15 -39 -20
-16 -19 -5 5 64 11 32 23 81 26 109 10 76 27 103 69 111 81 16 145 122 145
243 l0 53 -47 -29 c-108 -67 -160 -146 -148 -229 4 -33 2 -53 -8 -66 -12 -16
-14 -13 -26 37 -8 31 -11 70 -7 91 14 73 -37 141 -150 199 -31 16 -32 16 -38
-6 -6 -26 8 -130 22 -167 17 -42 66 -81 110 -87 34 -5 43 -11 54 -37 14 -33
16 -103 4 -149 l-7 -29 -28 39 c-15 21 -30 58 -33 81 -4 24 -14 54 -23 68 -20
31 -103 70 -169 80 l-49 7 7 -34 c11 -57 55 -137 89 -161 24 -17 47 -23 92
-25 51 -1 63 -5 82 -28 27 -31 28 -48 7 -106 -8 -24 -21 -73 -28 -109 l-12
-65 -16 35 c-9 19 -18 60 -20 91 -6 75 -33 111 -112 149 -93 44 -100 42 -93
-26 12 -115 77 -194 162 -194 37 0 43 -3 57 -34 l17 -34 -62 -6 c-128 -14
-185 -45 -207 -111 -6 -19 -25 -44 -41 -56 -27 -19 -29 -19 -29 -2 0 10 9 24
20 30 33 21 53 71 47 120 -4 42 -51 133 -72 140 -13 4 -54 -57 -71 -107 -19
-54 -5 -109 36 -144 34 -28 37 -44 15 -85 -12 -25 -64 -73 -102 -95 -20 -11
-62 56 -94 149 -36 106 -37 135 -7 135 39 0 109 41 133 79 26 39 62 157 52
168 -9 8 -81 -25 -129 -60 -52 -38 -78 -82 -78 -136 0 -70 -12 -39 -20 51 -7
72 -5 90 12 131 16 37 26 47 44 47 65 0 134 57 163 134 21 58 36 136 26 136
-4 0 -33 -14 -65 -31 -103 -54 -150 -117 -150 -197 0 -21 -7 -47 -15 -58 -14
-18 -14 -18 -14 6 0 14 6 52 14 85 8 33 15 77 15 97 0 27 8 47 31 73 28 31 35
35 66 29 75 -14 164 49 218 155 14 28 25 53 25 56 0 10 -39 5 -98 -13 l-59
-19 39 40 c21 22 37 45 35 51 -6 17 -120 10 -160 -9 -19 -9 -43 -32 -53 -51
-23 -42 -34 -43 -34 -2 0 34 36 73 136 149 67 51 198 119 230 119 13 0 24 4
24 9 0 5 33 17 73 26 39 9 90 24 112 35 53 25 91 24 126 -1z m-1073 -1084 c73
-23 201 -92 268 -144 43 -33 139 -146 191 -224 43 -65 152 -264 153 -279 0 -4
-36 15 -80 43 -44 27 -105 60 -135 74 l-55 24 2 68 c1 82 -11 109 -81 178
l-51 49 0 -62 c0 -90 17 -148 56 -189 29 -31 31 -34 11 -29 -12 3 -51 11 -87
17 -93 16 -113 34 -114 97 -1 35 -8 59 -22 79 -22 29 -100 76 -146 87 -25 6
-28 4 -28 -18 0 -42 38 -131 69 -160 20 -20 43 -30 75 -33 26 -3 52 -13 62
-24 17 -18 15 -19 -38 -19 -31 0 -69 -3 -85 -6 -23 -5 -36 0 -61 24 -29 27
-31 33 -21 58 24 65 -17 144 -101 192 l-48 27 58 28 c64 30 100 74 100 124 0
51 2 51 108 18z m961 -290 l13 -70 -63 -110 c-34 -60 -82 -157 -107 -215 -25
-58 -46 -107 -48 -109 -1 -1 -21 33 -43 77 -44 87 -125 224 -195 329 -25 36
-43 70 -40 74 2 4 18 10 34 14 16 4 28 10 27 15 -1 4 24 38 56 74 l58 66 55
-6 c92 -11 178 39 217 124 10 23 13 11 18 -83 3 -61 12 -141 18 -180z m1909
-327 c8 -65 90 -104 204 -95 l67 4 -23 -31 c-56 -74 -76 -165 -45 -203 12 -13
22 -90 12 -79 -8 7 -79 -78 -118 -139 -20 -33 -44 -67 -51 -75 -44 -48 -65
-81 -58 -92 4 -7 4 -10 -1 -6 -4 4 -30 -11 -56 -33 -55 -46 -63 -43 -19 7 50
57 49 121 -3 217 -11 20 -24 37 -29 37 -10 0 -63 -105 -72 -143 -10 -44 4 -95
35 -127 16 -15 29 -33 29 -37 0 -5 -46 -40 -102 -76 l-102 -67 -73 0 c-40 0
-73 2 -73 5 0 2 19 9 42 16 62 16 93 42 115 96 48 113 40 122 -56 74 -86 -44
-126 -100 -118 -166 2 -18 -6 -21 -83 -27 -88 -6 -217 -35 -302 -68 l-48 -18
52 60 c29 33 88 101 131 151 48 57 91 99 115 109 42 20 72 23 72 8 0 -14 78
-49 107 -50 37 0 114 30 173 68 l55 35 -45 20 c-25 11 -77 22 -116 24 -76 6
-103 -3 -157 -50 -28 -23 -98 -52 -96 -39 0 4 37 54 83 112 67 86 89 107 121
117 35 12 36 13 8 8 -18 -2 -33 -3 -33 0 0 2 20 35 44 72 24 37 51 84 61 103
23 46 20 44 47 26 28 -20 88 -21 135 -1 53 22 147 95 136 106 -16 16 -128 22
-169 9 -21 -7 -58 -31 -81 -53 -24 -23 -43 -39 -43 -35 0 3 11 30 25 61 27 58
72 94 210 166 68 37 89 36 93 -1z m-2802 -5705 c-54 -160 -111 -238 -294 -404
-164 -150 -262 -230 -402 -328 -182 -128 -323 -238 -375 -292 l-50 -52 60 47
c70 55 313 238 335 251 8 5 -16 -27 -52 -70 -37 -43 -88 -115 -114 -159 -67
-113 -159 -250 -202 -300 l-36 -41 38 35 c21 19 83 102 138 183 173 257 314
410 463 501 105 64 163 106 259 185 50 40 77 57 73 45 -3 -10 -31 -77 -62
-148 l-56 -129 -257 -265 c-163 -167 -291 -289 -349 -333 -174 -131 -282 -283
-393 -548 -74 -178 -132 -297 -180 -369 -45 -66 -60 -68 -60 -8 0 16 -10 69
-21 119 -19 80 -20 97 -9 146 20 89 78 288 116 396 37 107 191 425 205 425 15
0 10 -146 -7 -228 -19 -93 -34 -140 -86 -262 -59 -138 -98 -255 -103 -308 l-4
-47 9 44 c18 84 64 207 144 384 49 109 76 237 76 363 l0 113 74 134 c99 179
201 350 248 418 36 52 44 58 102 73 107 29 333 154 475 262 24 19 46 32 49 30
9 -10 -68 -102 -150 -182 -45 -44 -146 -128 -223 -186 -77 -58 -169 -136 -205
-174 l-65 -67 75 60 c41 34 145 111 230 172 232 165 378 305 452 431 20 34 55
73 92 102 34 26 62 48 63 48 1 0 -9 -30 -21 -67z"/>
<path d="M4711 11925 c-18 -8 -43 -15 -55 -16 -14 0 -16 -2 -6 -6 8 -3 28 -18
43 -34 16 -15 44 -33 64 -40 41 -13 151 -7 198 11 l30 11 -25 20 c-77 59 -185
83 -249 54z"/>
<path d="M4463 11833 l-33 -18 23 -27 c28 -33 51 -45 107 -52 49 -7 166 13
164 28 -1 5 -27 25 -59 45 -69 43 -150 52 -202 24z"/>
<path d="M4512 10672 c-12 -4 -38 -20 -58 -35 -30 -25 -33 -31 -22 -44 34 -41
123 -54 196 -29 43 15 112 57 112 68 0 22 -182 54 -228 40z"/>
<path d="M6759 9967 c-42 -69 -54 -110 -50 -184 1 -12 14 -37 30 -55 16 -18
31 -42 34 -53 4 -17 5 -17 6 -2 0 10 17 39 36 64 34 44 39 64 35 128 -2 31
-48 145 -59 145 -3 0 -18 -19 -32 -43z"/>
<path d="M6443 9903 c-12 -2 -41 -21 -65 -42 -38 -34 -41 -40 -29 -55 24 -28
67 -46 113 -46 60 0 208 71 208 100 0 4 -29 17 -65 29 -61 20 -110 24 -162 14z"/>
<path d="M3974 12323 c12 -104 70 -183 134 -183 23 0 51 -34 53 -65 1 -14 3
-15 6 -4 2 8 -1 29 -7 45 -7 16 -13 52 -14 79 -1 30 -9 61 -21 79 -19 28 -128
106 -148 106 -6 0 -7 -22 -3 -57z"/>
<path d="M5502 12304 c-80 -81 -101 -132 -83 -202 7 -23 9 -54 6 -69 -4 -19
-3 -22 3 -10 4 10 28 29 52 41 70 35 103 96 108 202 3 54 1 89 -6 96 -8 8 -31
-9 -80 -58z"/>
<path d="M3544 12133 c-105 -69 -124 -103 -121 -211 1 -47 5 -72 9 -61 5 11
17 19 31 19 33 0 87 38 110 78 21 36 36 185 20 195 -5 3 -27 -6 -49 -20z"/>
<path d="M5581 11895 c-35 -19 -72 -42 -83 -52 -33 -29 -58 -89 -58 -137 0
-25 -4 -48 -10 -51 -5 -3 -10 -12 -10 -18 1 -7 5 -6 13 4 7 9 29 18 50 22 79
13 141 90 166 205 6 29 11 55 11 57 0 10 -17 3 -79 -30z"/>
<path d="M3980 11898 c1 -20 37 -97 61 -126 34 -44 70 -62 122 -62 l49 0 -7
33 c-12 58 -16 65 -50 95 -32 29 -129 72 -160 72 -8 0 -15 -6 -15 -12z"/>
<path d="M2469 11726 c-46 -12 -137 -64 -159 -91 -13 -16 -6 -18 90 -35 109
-20 215 11 246 72 14 27 14 27 -41 47 -63 24 -73 24 -136 7z"/>
<path d="M3075 11616 c-17 -7 -55 -40 -84 -72 l-54 -59 62 -3 c78 -4 159 19
195 54 32 33 44 73 25 85 -21 13 -110 10 -144 -5z"/>
<path d="M6080 11486 c0 -38 24 -81 62 -110 37 -27 144 -66 183 -66 l25 0 -24
49 c-52 101 -97 136 -190 147 -56 7 -56 7 -56 -20z"/>
<path d="M6703 11473 l-33 -4 20 -39 c27 -52 74 -86 145 -105 77 -20 185 -20
185 -1 0 19 -100 109 -147 131 -39 19 -111 27 -170 18z"/>
<path d="M1890 11403 c-48 -8 -130 -34 -130 -41 0 -11 82 -60 130 -77 72 -25
149 -17 192 22 16 15 15 18 -20 49 -32 28 -111 58 -140 53 -4 -1 -18 -4 -32
-6z"/>
<path d="M3108 11273 c-32 -8 -58 -19 -58 -23 0 -12 87 -64 142 -85 64 -24
160 -18 190 13 l22 22 -25 26 c-56 62 -152 78 -271 47z"/>
<path d="M2578 11201 c-65 -70 -87 -125 -70 -176 25 -72 41 -109 42 -92 0 9 7
17 15 17 25 0 83 59 96 97 13 42 7 133 -13 182 l-13 34 -57 -62z"/>
<path d="M6496 11042 c-34 -122 -12 -220 54 -245 17 -6 30 -16 30 -22 0 -5 13
19 29 54 31 69 32 109 6 165 -17 35 -79 106 -93 106 -5 0 -17 -26 -26 -58z"/>
<path d="M1515 11055 c-5 -2 -32 -6 -60 -10 l-50 -7 47 -43 c94 -85 203 -112
275 -68 l31 19 -47 46 c-28 27 -63 50 -86 57 -38 10 -89 13 -110 6z"/>
<path d="M6075 11037 c-19 -9 -42 -11 -62 -6 -18 4 -33 3 -33 -2 0 -5 12 -9
28 -9 21 0 30 -8 44 -38 12 -25 33 -47 60 -63 37 -21 55 -24 133 -23 50 0 99
5 109 11 17 9 14 15 -30 56 -27 26 -64 54 -84 64 -46 22 -127 27 -165 10z"/>
<path d="M2143 10997 c-24 -5 -43 -13 -43 -17 0 -14 70 -70 120 -95 63 -32
137 -34 190 -4 l37 21 -36 40 c-20 23 -50 47 -68 54 -37 16 -138 16 -200 1z"/>
<path d="M5873 10960 c9 -6 17 -20 17 -31 0 -57 64 -121 143 -144 58 -16 133
-23 143 -12 13 13 -63 122 -106 152 -35 26 -52 30 -108 32 -37 0 -76 4 -87 8
-18 6 -18 5 -2 -5z"/>
<path d="M3040 10891 c-34 -18 -120 -112 -120 -131 0 -13 105 -13 152 0 51 14
91 51 110 98 l16 40 -30 6 c-53 10 -92 7 -128 -13z"/>
<path d="M1569 10867 c-36 -13 -72 -27 -78 -31 -20 -13 4 -32 75 -60 100 -40
201 -33 243 18 8 9 25 17 40 17 l26 1 -25 7 c-14 3 -47 19 -74 35 -66 40 -123
43 -207 13z"/>
<path d="M5730 10878 c-25 -4 -58 -6 -75 -3 l-30 5 28 -11 c19 -7 27 -18 27
-35 0 -32 60 -90 107 -103 46 -13 203 -14 203 -2 0 5 -21 32 -46 60 -71 79
-132 104 -214 89z"/>
<path d="M3320 10606 c0 -30 48 -121 79 -151 25 -23 42 -30 79 -31 26 -1 56
-6 66 -10 17 -6 14 -10 -19 -21 -29 -10 -48 -10 -77 -2 -68 18 -137 -18 -200
-105 -33 -46 -26 -56 37 -56 94 0 167 39 196 105 19 44 37 54 94 56 l30 0 -32
16 c-28 14 -33 22 -33 53 0 74 -74 139 -177 155 -35 6 -43 4 -43 -9z"/>
<path d="M7410 10499 c-19 -4 -55 -18 -80 -30 l-46 -23 31 -32 c42 -45 65 -54
133 -54 58 0 186 32 196 49 7 10 -56 55 -104 74 -50 20 -90 25 -130 16z"/>
<path d="M3963 10370 c-40 -24 -103 -124 -103 -162 0 -15 63 -3 116 22 49 24
94 88 94 133 0 24 -4 27 -37 27 -21 0 -52 -9 -70 -20z"/>
<path d="M4973 10187 c9 -8 17 -28 17 -44 0 -30 26 -73 65 -105 37 -31 185
-72 185 -50 0 4 -15 34 -33 66 -46 83 -90 116 -164 125 -32 4 -65 10 -73 15
-8 4 -7 1 3 -7z"/>
<path d="M3950 10154 c-15 -38 -12 -121 5 -154 18 -36 58 -67 94 -75 23 -5 30
-13 36 -41 l6 -36 22 44 c21 41 24 43 77 48 58 6 104 26 131 56 23 26 56 94
60 124 5 30 -5 30 -101 -3 -80 -28 -125 -70 -132 -125 -7 -50 -49 -112 -58
-86 -4 10 0 36 8 58 22 60 10 92 -59 159 -33 31 -65 57 -70 57 -5 0 -14 -12
-19 -26z"/>
<path d="M2310 10115 l-55 -45 -110 0 c-92 0 -154 -6 -265 -25 -16 -2 -17 -3
-141 -51 -48 -19 -97 -34 -110 -35 -21 0 -22 -1 -5 -8 17 -7 15 -10 -15 -29
-19 -11 -45 -32 -58 -46 -41 -43 -109 -33 -134 19 -9 19 -35 47 -58 62 -38 25
-52 28 -125 28 -45 0 -86 -4 -91 -8 -13 -14 101 -113 151 -132 40 -16 50 -16
88 -4 33 11 53 12 86 4 l42 -11 -37 -36 c-40 -39 -114 -77 -149 -78 -12 0 -29
11 -39 26 -9 14 -37 35 -62 46 -53 24 -102 19 -177 -15 l-49 -23 49 -31 c27
-18 62 -37 77 -42 45 -17 109 -13 142 9 17 11 38 20 48 20 17 0 17 -2 -2 -29
-12 -16 -34 -32 -50 -36 -30 -6 -60 -34 -80 -72 -13 -25 -15 -173 -3 -173 5 0
29 14 55 31 77 51 110 127 84 192 -14 32 -13 36 7 60 24 29 82 61 95 52 5 -3
11 -2 13 2 2 5 36 39 75 77 51 49 70 63 66 47 -3 -12 -21 -33 -39 -47 -55 -42
-64 -101 -33 -216 12 -47 26 -48 62 -3 60 76 71 163 28 217 -33 40 -3 88 85
138 65 37 75 38 36 2 -41 -39 -49 -87 -27 -168 9 -35 21 -66 25 -69 10 -6 66
63 80 99 16 42 12 88 -11 131 -19 36 -20 40 -4 51 22 17 171 56 197 52 18 -3
15 -6 -18 -28 -21 -14 -47 -40 -57 -58 -23 -39 -36 -162 -18 -162 7 0 34 21
61 46 55 52 76 104 65 162 -4 24 -2 38 7 43 15 10 228 12 228 3 0 -3 -16 -25
-35 -48 -19 -23 -54 -85 -79 -138 -31 -67 -54 -103 -78 -120 -49 -37 -64 -39
-103 -16 -55 32 -137 23 -201 -23 -65 -47 -67 -63 -9 -78 68 -17 147 -16 184
3 17 9 31 20 31 24 0 12 39 52 51 52 5 0 7 -12 4 -27 l-5 -28 10 25 c13 28 49
70 62 70 4 0 8 -9 8 -21 0 -11 4 -28 10 -38 6 -12 5 -31 -2 -54 -17 -55 9
-112 85 -183 l62 -59 3 65 c2 42 -3 79 -13 107 -16 42 -77 103 -102 103 -15 0
-30 26 -34 60 -2 14 11 55 29 91 18 37 32 71 32 76 0 5 8 18 18 29 9 10 22 30
29 44 14 32 81 110 94 110 6 0 1 -14 -12 -31 -30 -43 -21 -97 28 -167 21 -31
43 -57 49 -59 14 -5 33 39 41 93 7 52 -24 124 -62 144 -34 18 -31 33 12 69 21
17 33 31 28 31 -6 0 -35 -20 -65 -45z"/>
<path d="M1405 10064 c-67 -15 -105 -28 -105 -34 0 -12 93 -78 134 -95 48 -20
79 -19 127 6 l41 20 -25 32 c-41 53 -115 84 -172 71z"/>
<path d="M7934 10043 c-17 -10 -42 -26 -55 -36 l-24 -18 32 -29 c45 -41 104
-55 168 -41 59 13 155 56 155 69 0 5 -28 22 -62 37 -80 36 -171 44 -214 18z"/>
<path d="M5622 10007 c-25 -30 -52 -105 -52 -145 0 -52 22 -93 62 -116 28 -17
29 -17 49 6 57 65 57 120 0 209 -34 55 -45 63 -59 46z"/>
<path d="M4254 9912 c-22 -11 -50 -31 -61 -46 -12 -14 -27 -26 -34 -27 -8 0
13 -9 46 -20 71 -24 126 -19 195 16 56 30 107 71 98 80 -3 4 -51 9 -105 11
-82 4 -105 2 -139 -14z"/>
<path d="M4953 9904 c-37 -53 -53 -93 -53 -134 0 -48 22 -95 51 -111 18 -9 20
-17 16 -46 -7 -43 -25 -64 -99 -114 -65 -44 -68 -45 -69 -21 0 11 -3 9 -10 -8
-5 -14 -37 -55 -72 -91 -57 -60 -115 -145 -133 -193 -7 -19 -7 -19 13 0 11 10
20 21 20 24 1 22 8 35 48 89 41 55 49 61 82 62 36 1 37 2 9 8 l-30 6 45 38
c51 45 109 77 138 77 11 0 35 -9 54 -20 70 -41 182 -25 263 39 28 22 27 23
-45 45 -103 30 -189 18 -235 -33 -11 -12 -25 -21 -32 -21 -7 0 0 13 14 28 15
16 42 48 61 71 l33 42 54 -7 c94 -11 179 39 229 137 l17 32 -68 -6 c-38 -4
-86 -12 -106 -17 -46 -13 -96 -60 -104 -97 -7 -34 -64 -85 -64 -57 0 9 16 34
35 55 28 31 35 47 35 79 0 38 -29 109 -63 154 -13 18 -15 18 -34 -10z"/>
<path d="M2161 9864 c-40 -51 -21 -142 47 -224 l29 -34 16 30 c37 72 33 153
-9 204 -42 49 -59 54 -83 24z"/>
<path d="M2440 9838 c-30 -11 -58 -23 -62 -27 -4 -4 15 -21 42 -39 119 -78
221 -85 286 -18 l20 21 -35 28 c-20 16 -48 35 -63 43 -38 20 -124 16 -188 -8z"/>
<path d="M4671 9763 c-15 -54 -13 -119 4 -152 17 -34 70 -81 91 -81 8 0 14 -8
14 -17 1 -26 31 56 37 98 3 23 -1 48 -12 69 -22 42 -94 120 -111 120 -7 0 -18
-17 -23 -37z"/>
<path d="M1412 9692 c-1 -19 -12 -48 -24 -65 -34 -48 -30 -115 11 -199 19 -38
37 -68 41 -68 16 0 50 101 50 150 0 54 -28 123 -54 133 -8 3 -16 23 -19 44 -4
37 -4 38 -5 5z"/>
<path d="M2604 9675 c-27 -14 -65 -38 -84 -54 l-35 -30 30 -11 c64 -25 155
-42 187 -36 47 9 95 40 113 75 l15 31 -50 25 c-63 32 -113 32 -176 0z"/>
<path d="M5770 9658 c-19 -12 -51 -25 -70 -29 -30 -6 -31 -7 -8 -8 15 0 44
-12 64 -26 44 -30 90 -39 159 -32 62 6 160 46 147 59 -5 5 -40 20 -78 33 -89
32 -166 33 -214 3z"/>
<path d="M1956 9617 c-31 -30 -36 -40 -36 -80 0 -48 33 -152 52 -163 25 -16
88 98 88 159 0 43 -31 106 -56 114 -7 2 -28 -11 -48 -30z"/>
<path d="M2754 9501 c-34 -16 -65 -34 -69 -40 -10 -17 118 -72 181 -78 33 -4
65 -1 84 7 30 12 70 53 70 72 0 4 -21 22 -47 38 -64 41 -134 41 -219 1z"/>
<path d="M7943 9431 c-43 -20 -86 -73 -81 -101 2 -8 24 -21 50 -29 68 -21 116
-4 190 67 69 65 66 69 -44 78 -60 4 -81 1 -115 -15z"/>
<path d="M5097 9433 c-2 -5 -3 -17 -1 -28 1 -11 5 -38 9 -60 8 -56 46 -109
101 -141 46 -27 47 -27 61 -8 34 45 -11 136 -100 204 -56 42 -63 45 -70 33z"/>
<path d="M4825 9365 c-22 -8 -35 -14 -28 -14 6 -1 20 -17 31 -35 32 -54 87
-77 184 -77 102 0 114 10 62 56 -87 77 -163 98 -249 70z"/>
<path d="M2350 9353 c0 -15 52 -83 94 -123 34 -32 42 -35 104 -37 84 -1 129
-17 112 -38 -20 -25 -113 -65 -149 -65 -19 0 -32 -3 -28 -6 11 -12 -48 -51
-87 -58 -22 -4 -51 -20 -67 -35 -28 -29 -59 -113 -59 -164 0 -27 2 -29 28 -23
95 23 168 113 156 192 -5 37 -3 43 23 61 15 11 42 23 60 26 27 5 31 4 26 -10
-4 -10 1 -9 18 6 25 23 94 74 144 107 l28 18 -12 -22 c-6 -12 -25 -28 -40 -37
-41 -21 -68 -59 -76 -106 -8 -47 2 -149 15 -149 5 0 31 22 58 49 66 63 83 114
60 179 -16 44 -16 47 4 75 20 28 91 66 151 81 36 8 28 -7 -11 -23 -16 -7 -36
-27 -45 -47 -25 -52 -21 -184 6 -184 6 0 30 20 53 45 55 57 70 107 50 167 -16
45 -14 52 19 62 11 3 0 3 -24 0 -54 -6 -159 -47 -224 -87 -45 -28 -51 -29 -88
-18 -24 7 -39 18 -39 28 0 31 -43 91 -83 113 -43 24 -177 42 -177 23z"/>
<path d="M725 9314 c-33 -8 -64 -19 -69 -24 -13 -13 106 -86 164 -100 59 -14
108 -7 143 20 14 11 33 20 44 21 14 0 14 2 3 6 -8 3 -32 21 -52 39 -60 54
-124 64 -233 38z"/>
<path d="M7790 9315 c0 -3 15 -11 33 -18 42 -18 53 -33 60 -85 l5 -42 -38 30
-38 30 -16 -34 c-22 -46 -20 -109 4 -156 23 -44 97 -126 106 -117 11 11 21
130 14 168 l-7 37 38 -28 c37 -27 156 -67 166 -56 9 8 -23 86 -56 138 -31 49
-80 78 -131 78 -35 0 -110 45 -88 53 7 3 -2 6 -19 6 -18 1 -33 -1 -33 -4z"/>
<path d="M4717 9207 l-28 -12 23 -34 c13 -19 43 -45 68 -59 40 -21 55 -23 127
-20 46 3 86 8 90 12 10 9 -73 81 -123 106 -45 22 -114 26 -157 7z"/>
<path d="M5853 9198 c-47 -24 -51 -33 -28 -64 44 -64 161 -69 299 -15 l28 11
-25 20 c-86 68 -197 87 -274 48z"/>
<path d="M1436 9179 c-9 -13 -23 -45 -32 -72 -28 -84 -5 -161 59 -197 25 -14
28 -13 53 12 41 40 44 109 9 181 -15 31 -38 66 -50 77 l-23 21 -16 -22z"/>
<path d="M2213 9189 c-18 -5 -33 -13 -33 -18 0 -13 74 -78 111 -96 44 -23 110
-23 147 1 l30 19 -23 36 c-13 20 -39 43 -58 52 -38 18 -122 21 -174 6z"/>
<path d="M835 9141 c-33 -16 -69 -35 -79 -44 -18 -13 -16 -16 37 -36 122 -45
220 -37 275 23 l30 34 -48 26 c-67 36 -135 35 -215 -3z"/>
<path d="M3364 9075 c-8 -43 3 -120 22 -156 17 -34 62 -72 105 -89 19 -8 40
-21 47 -30 12 -13 13 -13 8 2 -3 10 1 30 9 45 29 55 11 116 -51 174 -40 37
-113 89 -126 89 -4 0 -10 -16 -14 -35z"/>
<path d="M4628 9043 c-9 -10 -26 -38 -38 -62 -33 -65 -24 -123 26 -171 l38
-36 34 38 c47 52 49 102 7 183 -34 66 -45 73 -67 48z"/>
<path d="M2550 9039 c0 -6 -16 -29 -35 -50 -31 -34 -35 -45 -35 -93 0 -61 28
-158 44 -153 6 2 26 28 44 57 24 42 32 66 32 103 0 45 -24 107 -41 107 -4 0
-5 9 -2 20 3 11 3 20 -1 20 -3 0 -6 -5 -6 -11z"/>
<path d="M1115 9009 c-53 -10 -140 -44 -139 -55 1 -16 127 -73 175 -79 59 -8
119 8 149 40 23 25 23 25 4 40 -69 54 -118 68 -189 54z"/>
<path d="M2979 8911 c-50 -19 -139 -77 -139 -90 0 -27 204 -51 264 -31 43 14
96 56 96 76 0 8 11 14 28 15 24 1 23 2 -8 9 -19 4 -52 15 -72 24 -48 21 -111
20 -169 -3z"/>
<path d="M735 8911 l-30 -6 45 -48 c71 -78 139 -104 217 -86 26 6 59 12 73 11
14 0 18 2 8 5 -9 2 -20 17 -23 33 -8 36 -53 76 -103 90 -40 11 -139 12 -187 1z"/>
<path d="M6448 8878 c-51 -11 -51 -10 3 -68 14 -16 43 -33 65 -39 43 -12 179
-14 208 -2 44 17 -125 122 -194 120 -19 -1 -56 -6 -82 -11z"/>
<path d="M1760 8861 l-45 -6 30 -29 c78 -75 170 -107 247 -85 23 7 48 12 55
10 22 -3 -61 81 -93 94 -39 16 -136 25 -194 16z"/>
<path d="M6255 8830 c-11 -4 -31 -7 -45 -5 -14 1 -17 0 -7 -2 9 -2 17 -13 17
-23 0 -35 42 -70 94 -79 50 -9 156 -4 156 8 0 17 -67 85 -96 97 -37 15 -88 17
-119 4z"/>
<path d="M3179 8807 c-20 -8 -50 -24 -67 -36 -39 -27 -107 -109 -99 -118 11
-10 162 -5 206 7 51 14 100 54 118 100 9 19 20 38 26 42 5 3 -1 6 -14 6 -13
-1 -49 2 -79 6 -37 4 -67 2 -91 -7z"/>
<path d="M355 8709 c-22 -5 -43 -13 -48 -18 -5 -5 11 -24 35 -43 88 -72 150
-89 228 -63 60 20 70 37 44 72 -44 58 -144 78 -259 52z"/>
<path d="M4695 8707 c-16 -8 -39 -24 -49 -36 -11 -11 -26 -21 -35 -21 -11 0
-8 -5 9 -15 55 -32 91 -45 124 -45 45 0 132 33 171 64 l30 24 -55 17 c-78 23
-159 28 -195 12z"/>
<path d="M6397 8695 c-47 -16 -83 -48 -96 -85 -9 -26 -8 -28 27 -34 63 -10
105 -6 149 13 42 19 123 92 123 111 0 15 -159 11 -203 -5z"/>
<path d="M7705 8648 c-22 -12 -58 -25 -80 -29 -40 -6 -40 -7 -6 -8 22 -1 39
-9 52 -25 29 -36 99 -60 157 -52 57 7 172 46 172 58 0 5 -32 24 -72 43 -89 43
-161 47 -223 13z"/>
<path d="M6517 8588 c-21 -6 -53 -25 -70 -43 -21 -22 -45 -35 -67 -38 -31 -3
-29 -4 11 -5 26 -1 63 -9 82 -17 73 -30 162 -13 254 49 l36 25 -26 10 c-29 11
-143 31 -167 30 -8 -1 -32 -6 -53 -11z"/>
<path d="M7575 8535 c-22 -8 -41 -15 -42 -15 -2 0 -3 -7 -3 -15 0 -25 59 -83
98 -96 39 -13 150 -15 202 -4 l32 7 -38 40 c-81 83 -170 113 -249 83z"/>
<path d="M7352 8420 l-43 -20 22 -31 c28 -39 91 -68 147 -69 62 0 184 29 179
43 -2 7 -32 30 -67 52 -55 34 -73 40 -129 42 -49 2 -77 -3 -109 -17z"/>
<path d="M921 8359 c22 -43 95 -112 134 -130 31 -14 49 -16 79 -9 23 5 49 4
67 -2 17 -6 32 -8 35 -5 3 3 -8 8 -25 12 -23 5 -31 13 -36 36 -9 41 -63 92
-112 107 -22 7 -66 12 -97 12 -55 0 -56 -1 -45 -21z"/>
<path d="M1555 8350 c-38 -10 -92 -28 -120 -40 -64 -27 -175 -98 -198 -127
-26 -32 -134 -83 -178 -83 -32 0 -40 5 -57 34 -38 65 -137 93 -232 66 -66 -19
-69 -27 -25 -65 85 -73 179 -95 238 -56 16 10 38 16 49 13 18 -4 18 -6 -7 -32
-16 -16 -42 -30 -64 -34 -69 -11 -112 -77 -127 -193 -6 -48 -5 -53 13 -53 31
0 126 62 151 100 21 30 23 44 19 97 -4 54 -2 64 17 82 25 24 106 55 106 41 0
-6 9 -1 20 10 11 11 24 20 28 20 4 0 37 24 72 54 36 30 66 53 68 51 9 -9 -21
-45 -53 -65 -60 -37 -79 -98 -65 -200 5 -34 11 -65 15 -68 8 -8 94 77 112 112
20 39 20 119 -1 151 -15 23 -15 28 -1 55 18 35 57 62 134 90 64 24 76 21 27
-8 -54 -32 -70 -72 -63 -163 3 -43 8 -83 12 -89 9 -15 89 62 110 106 19 41 19
91 0 128 -24 46 -19 54 38 65 89 17 94 19 62 19 -16 1 -61 -7 -100 -18z"/>
<path d="M1656 8320 c-27 -11 -53 -23 -58 -28 -19 -19 143 -102 200 -102 27 0
112 45 112 59 0 18 -45 64 -76 77 -46 19 -120 17 -178 -6z"/>
<path d="M5754 8285 c-107 -34 -163 -80 -171 -144 -3 -23 -10 -44 -14 -47 -5
-3 -9 -10 -9 -17 0 -8 3 -8 12 1 7 7 27 12 45 12 39 0 99 28 130 62 38 41 80
150 56 147 -5 -1 -26 -7 -49 -14z"/>
<path d="M6920 8245 c0 -36 27 -73 69 -94 36 -19 125 -41 162 -41 18 0 19 2 4
30 -22 43 -73 99 -106 116 -15 7 -51 14 -79 14 -47 0 -50 -2 -50 -25z"/>
<path d="M2001 8197 c0 -16 -11 -43 -23 -60 -34 -47 -29 -108 15 -201 22 -47
42 -76 49 -74 21 7 47 89 47 151 1 64 -25 129 -58 147 -11 5 -22 22 -24 37
l-4 28 -2 -28z"/>
<path d="M6349 8191 c-19 -4 -45 -14 -57 -22 l-22 -16 28 -26 c58 -55 131 -68
259 -46 l64 11 -21 23 c-27 29 -123 72 -175 78 -22 3 -56 2 -76 -2z"/>
<path d="M1120 8030 c0 -7 -13 -28 -30 -47 -26 -29 -30 -41 -30 -91 1 -59 37
-183 55 -185 6 -1 25 27 43 62 34 68 42 134 22 187 -13 32 -60 91 -60 74z"/>
<path d="M7075 8018 c-11 -6 -29 -20 -41 -32 l-20 -21 45 -37 c25 -21 61 -41
79 -44 50 -10 121 0 176 24 60 27 55 36 -46 87 -75 37 -151 46 -193 23z"/>
<path d="M7898 7985 c-15 -8 -32 -24 -38 -35 -5 -10 -22 -21 -37 -23 l-28 -4
28 -2 c15 0 46 -13 68 -28 56 -37 126 -42 201 -13 31 11 67 30 80 40 l23 19
-60 28 c-73 34 -193 43 -237 18z"/>
<path d="M7276 7840 c-31 -10 -63 -35 -78 -63 -11 -21 1 -34 66 -68 31 -17 51
-20 87 -16 45 6 121 38 163 70 19 14 18 16 -25 37 -48 25 -133 50 -164 49 -11
0 -33 -5 -49 -9z"/>
<path d="M1877 7521 c-59 -66 -61 -124 -5 -221 l31 -54 24 29 c87 104 95 238
18 273 -33 15 -27 18 -68 -27z"/>
<path d="M1265 7473 c-66 -15 -125 -35 -125 -43 0 -16 144 -80 195 -86 40 -5
62 -1 103 16 58 25 64 40 27 74 -41 38 -129 55 -200 39z"/>
<path d="M1730 7400 c0 -6 -12 -28 -26 -50 -45 -67 -33 -132 39 -222 17 -21
33 -38 37 -38 4 0 20 27 35 61 34 77 38 147 9 185 -23 31 -94 80 -94 64z"/>
</g>
</svg>
